<svg width="37" height="25" viewBox="0 0 37 25" xmlns="http://www.w3.org/2000/svg"><title>email</title><path d="M3.442 0A3.456 3.456 0 0 0 0 3.448v18.104A3.456 3.456 0 0 0 3.442 25h30.119a3.456 3.456 0 0 0 3.442-3.448V3.448A3.456 3.456 0 0 0 33.561 0H3.442zm0 1.724h30.119a1.7 1.7 0 0 1 1.721 1.724v18.104a1.7 1.7 0 0 1-1.721 1.724H3.442a1.7 1.7 0 0 1-1.72-1.724V3.448a1.7 1.7 0 0 1 1.72-1.724zM5.325 5.16a.86.86 0 0 0-.538 1.509l6.427 5.94-6.413 5.71a.86.86 0 1 0 1.143 1.28l6.534-5.818 3.644 3.38a3.484 3.484 0 0 0 4.733 0l3.67-3.38 6.536 5.819a.858.858 0 0 0 1.27-.012.863.863 0 0 0-.127-1.268l-6.414-5.711 6.428-5.94a.863.863 0 0 0 .047-1.22.86.86 0 0 0-1.217-.047L19.686 15.895c-.708.654-1.687.654-2.393 0L5.958 5.4a.863.863 0 0 0-.632-.242h-.001z" fill="#000" fill-rule="evenodd" opacity=".251"/></svg>