<svg width="50" height="50" viewBox="0 0 50 50" xmlns="http://www.w3.org/2000/svg"><title>desktop</title><defs><linearGradient x1="50%" y1="100%" x2="50%" y2="0%" id="a"><stop stop-color="#1C91A7" offset="0%"/><stop stop-color="#0C586E" offset="100%"/></linearGradient><linearGradient x1="50%" y1="259.859%" x2="50%" y2="0%" id="b"><stop stop-color="#F2C1B1" offset="0%"/><stop stop-color="#E08E79" offset="100%"/></linearGradient><linearGradient x1="118.611%" y1="120.52%" x2="0%" y2="0%" id="c"><stop stop-color="#E4F2F0" offset="0%"/><stop stop-color="#C5E0DC" offset="100%"/></linearGradient></defs><g fill="none" fill-rule="evenodd"><path d="M48.611 36.111H35.297l-1.389-1.389h11.925c.769 0 1.39-.62 1.39-1.389V1.39C47.222.62 46.601 0 45.832 0H4.167c-.769 0-1.39.62-1.39 1.389v31.944c0 .769.621 1.39 1.39 1.39h10.536l-1.39 1.388H1.39C.62 36.111 0 36.731 0 37.5v11.111C0 49.38.62 50 1.389 50H48.61C49.38 50 50 49.38 50 48.611V37.5c0-.768-.62-1.389-1.389-1.389zM5.556 2.778h38.888v29.166H5.556V2.778zM18.63 34.722h11.35l1.388 1.39H17.242l1.389-1.39zm28.591 12.5H2.778V38.89h44.444v8.333z" fill="url(#a)"/><path d="M29.167 41.667c0 .768.62 1.389 1.389 1.389h13.888c.769 0 1.39-.621 1.39-1.39 0-.768-.621-1.388-1.39-1.388H30.556c-.769 0-1.39.62-1.39 1.389zM5.556 40.278c-.769 0-1.39.62-1.39 1.389v2.777c0 .769.621 1.39 1.39 1.39.768 0 1.388-.621 1.388-1.39v-2.777c0-.769-.62-1.39-1.388-1.39zM9.722 40.278c-.768 0-1.389.62-1.389 1.389v2.777c0 .769.621 1.39 1.39 1.39.767 0 1.388-.621 1.388-1.39v-2.777c0-.769-.62-1.39-1.389-1.39zM13.889 40.278c-.768 0-1.389.62-1.389 1.389v2.777c0 .769.62 1.39 1.389 1.39.768 0 1.389-.621 1.389-1.39v-2.777c0-.769-.62-1.39-1.39-1.39z" fill="url(#b)"/><path d="M39 28H11a2 2 0 0 1-2-2V8a2 2 0 0 1 2-2h28a2 2 0 0 1 2 2v18a2 2 0 0 1-2 2z" fill="url(#c)"/></g></svg>