<svg width="30" height="30" viewBox="0 0 30 30" xmlns="http://www.w3.org/2000/svg"><title>apTooltip</title><path d="M15 0C6.7 0 0 6.7 0 15s6.7 15 15 15 15-6.7 15-15S23.3 0 15 0zm0 23.333c-1 0-1.8-.8-1.8-1.8s.8-1.8 1.8-1.8 1.8.8 1.8 1.8-.8 1.8-1.8 1.8zM19.066 13.2c-.2.267-.434.532-.667.767-.167.167-.366.333-.6.6a5.58 5.58 0 0 0-.634.634 5.151 5.151 0 0 0-.434.467c-.3.4-.434.934-.4 1.434v1.034h-2.6v-1.4a2.957 2.957 0 0 1 .233-1.4c.267-.433.565-.832.967-1.199l1.666-1.666c.367-.4.533-.9.533-1.435 0-.532-.2-1.032-.566-1.399-.366-.366-.9-.566-1.434-.566a2.012 2.012 0 0 0-1.467.533c-.399.367-.634.9-.667 1.434h-2.8c.1-1.233.667-2.399 1.6-3.2.968-.8 2.168-1.199 3.435-1.166a4.86 4.86 0 0 1 3.333 1.1c.867.733 1.3 1.8 1.3 3.134-.03.826-.298 1.66-.798 2.294z" fill="#00AEEF" fill-rule="evenodd"/></svg>