<svg width="30" height="30" viewBox="0 0 30 30" xmlns="http://www.w3.org/2000/svg" xmlns:xlink="http://www.w3.org/1999/xlink"><title>apRadioButton</title><defs><path d="M27 15c0-6.627-5.373-12-12-12S3 8.373 3 15s5.373 12 12 12 12-5.373 12-12zm-4.5 0a7.5 7.5 0 1 0-15 0 7.5 7.5 0 0 0 15 0zM0 15C0 6.716 6.716 0 15 0c8.284 0 15 6.716 15 15 0 8.284-6.716 15-15 15-8.284 0-15-6.716-15-15z" id="b"/><filter x="-23.3%" y="-16.7%" width="146.7%" height="146.7%" filterUnits="objectBoundingBox" id="a"><feOffset dy="2" in="SourceAlpha" result="shadowOffsetOuter1"/><feGaussianBlur stdDeviation="2" in="shadowOffsetOuter1" result="shadowBlurOuter1"/><feColorMatrix values="0 0 0 0 0.6 0 0 0 0 0.6 0 0 0 0 0.6 0 0 0 0.5 0" in="shadowBlurOuter1"/></filter></defs><g fill-rule="nonzero" fill="none"><use fill="#000" filter="url(#a)" xlink:href="#b"/><use fill="#00AEEF" fill-rule="evenodd" xlink:href="#b"/></g></svg>