<svg width="30" height="30" viewBox="0 0 30 30" xmlns="http://www.w3.org/2000/svg"><title>apCalendar</title><g fill="none" fill-rule="evenodd"><path d="M0 0h30v30H0z"/><g opacity=".7" fill="#000"><path d="M3.18 9.597v16.094c0 1.2.962 2.175 2.148 2.175h19.344c1.186 0 2.149-.974 2.149-2.175V9.597H3.179zm5.91 16.657H4.79v-4.299H9.09v4.299zm0-5.373H4.79v-4.299H9.09v4.299zm0-5.374H4.79V11.21H9.09v4.298zm5.373 10.747h-4.299v-4.299h4.299v4.299zm0-5.373h-4.299v-4.299h4.299v4.299zm0-5.374h-4.299V11.21h4.299v4.298zm5.373 10.747h-4.299v-4.299h4.299v4.299zm0-5.373h-4.299v-4.299h4.299v4.299zm0-5.374h-4.299V11.21h4.299v4.298zm5.373 10.747H20.91v-4.299h4.299v4.299zm0-5.373H20.91v-4.299h4.299v4.299zm0-5.374H20.91V11.21h4.299v4.298zM24.672 4.224h-3.493V1.806a.806.806 0 0 0-1.612 0v2.418h-9.134V1.806a.806.806 0 0 0-1.612 0v2.418H5.328c-1.186 0-2.149.974-2.149 2.174v2.124h23.642V6.398c0-1.2-.963-2.174-2.15-2.174zM9.627 7.985c-.89 0-1.612-.722-1.612-1.612 0-.596.324-1.115.806-1.394v1.394a.806.806 0 0 0 1.612 0V4.978a1.611 1.611 0 0 1-.806 3.007zm10.746 0c-.89 0-1.612-.722-1.612-1.612 0-.596.325-1.115.806-1.394v1.394a.806.806 0 0 0 1.612 0V4.978a1.611 1.611 0 0 1-.806 3.007z"/></g></g></svg>