<svg width="16" height="16" viewBox="0 0 16 16" xmlns="http://www.w3.org/2000/svg"><title>download</title><g fill="none" fill-rule="evenodd"><path d="M0 0h16v16H0z"/><path d="M7.991 0a.571.571 0 0 0-.562.579v10.044L3.837 7.03a.571.571 0 0 0-.808.808l4.567 4.569.008.006a.374.374 0 0 0 .043.038.14.14 0 0 0 .016.012c.01.008.02.014.03.02l.022.015.027.014.024.011c.008.005.018.008.026.012a.49.49 0 0 0 .054.018l.03.007a.303.303 0 0 0 .027.005l.027.005.03.003a.42.42 0 0 0 .056 0 .537.537 0 0 0 .049-.003h.003l.035-.006c.01-.001.019-.004.028-.006a.315.315 0 0 0 .056-.016l.02-.007.03-.013a.828.828 0 0 0 .044-.022h.002a.355.355 0 0 0 .032-.022.725.725 0 0 0 .06-.044l.002-.003a.391.391 0 0 0 .027-.024l4.567-4.57a.572.572 0 1 0-.808-.807l-3.592 3.594V.58A.572.572 0 0 0 7.99 0zM.58 14.858a.571.571 0 1 0 0 1.142H15.42a.571.571 0 1 0 0-1.142H.58z" fill-opacity=".5" fill="#021912"/></g></svg>