<svg width="30" height="27" viewBox="0 0 30 27" xmlns="http://www.w3.org/2000/svg"><title>apExternalLink</title><path d="M28.133 15.72v1.288c0 2.672-1.002 4.96-3.005 6.863-2.004 1.904-4.412 2.855-7.225 2.855H10.23c-2.812 0-5.221-.951-7.224-2.855C1.002 21.968 0 19.681 0 17.008v-7.29c0-2.672 1.002-4.96 3.006-6.863C5.009.952 7.418 0 10.23 0h6.675l.052 1.944c-2.267.519-4.127 1.49-5.576 2.915H7.673c-.7 0-1.3.24-1.803.717-.503.478-.755 1.049-.755 1.713v12.148c0 .664.252 1.235.755 1.713a2.527 2.527 0 0 0 1.803.717H20.46c.7 0 1.301-.239 1.804-.717.502-.478.754-1.049.754-1.713l5.115-3.717zm-7.34.534L30 8.382 20.818.656v5.248c-.119 0-.28.008-.486.024-.204.017-.613.082-1.227.195-.614.113-1.207.263-1.777.45-.572.186-1.224.485-1.957.898a9.827 9.827 0 0 0-1.957 1.434c-.57.543-1.099 1.255-1.585 2.138a9.389 9.389 0 0 0-1.01 2.952c.51-.616 1.206-1.134 2.084-1.555a10.136 10.136 0 0 1 2.634-.863 30.48 30.48 0 0 1 2.533-.34c.809-.073 1.47-.1 1.981-.085l.743.024v5.078z" fill="#5FC900" fill-rule="evenodd"/></svg>