<svg width="30" height="30" viewBox="0 0 30 30" xmlns="http://www.w3.org/2000/svg"><title>apStep1-3</title><g fill="none" fill-rule="evenodd"><path fill="none" d="M0 0h30v30H0z"/><circle fill="#FFF" cx="15" cy="15" r="15"/><path d="M17.525 15.24c.528.348.928.777 1.202 1.288.273.511.41 1.053.41 1.626 0 .925-.267 1.78-.801 2.564s-1.299 1.413-2.295 1.885-2.158.708-3.486.708a12.1 12.1 0 0 1-2.06-.196l-.01-1.484c.553.11 1.087.166 1.6.166.945 0 1.786-.155 2.525-.464.74-.31 1.314-.73 1.724-1.26.41-.53.615-1.118.615-1.762 0-.827-.246-1.482-.737-1.963-.492-.482-1.242-.723-2.251-.723-.098 0-.264.007-.498.02l-.889.214-.449-1.474a8.527 8.527 0 0 0 1.777-.537c.736-.287 1.307-.668 1.714-1.143.407-.475.61-1 .61-1.572 0-.69-.211-1.2-.634-1.529-.423-.328-.98-.493-1.67-.493-.625 0-1.182.098-1.67.293-.488.196-.954.45-1.397.762l-.84-1.22c.47-.385 1.076-.736 1.822-1.055a5.723 5.723 0 0 1 2.27-.479c.775 0 1.485.134 2.13.4.644.267 1.157.663 1.537 1.187.381.524.572 1.16.572 1.91 0 .8-.248 1.52-.742 2.157-.495.638-1.143 1.146-1.944 1.524.716.084 1.338.3 1.865.65z" fill="#13966C"/></g></svg>