<svg width="30" height="30" viewBox="0 0 30 30" xmlns="http://www.w3.org/2000/svg"><title>apStep1-2</title><g fill="none" fill-rule="evenodd"><path fill="none" d="M0 0h30v30H0z"/><circle fill="#FFF" cx="15" cy="15" r="15"/><path d="M20.29 20.368v1.85h-9.874l-.345-1.182a25.441 25.441 0 0 0 3.527-2.45c1.076-.895 1.95-1.835 2.623-2.821.672-.986 1.008-1.942 1.008-2.868 0-.725-.213-1.298-.637-1.72-.425-.42-1.038-.631-1.84-.631-.661 0-1.31.142-1.948.428-.638.286-1.158.637-1.562 1.055l-.972-1.295c.495-.544 1.144-1.016 1.949-1.416.804-.4 1.732-.6 2.784-.6 1.616 0 2.781.377 3.495 1.133s1.071 1.73 1.071 2.92c0 .885-.235 1.782-.705 2.69-.47.91-1.134 1.788-1.99 2.634a16.91 16.91 0 0 1-3.01 2.335l6.426-.062z" fill="#13966C"/></g></svg>