<svg width="42" height="33" viewBox="0 0 42 33" xmlns="http://www.w3.org/2000/svg"><title>A</title><g fill="none" fill-rule="evenodd"><path d="M26.799 16.035v-.011c.804.243 1.546.525 2.228.83.372.164.727.335 1.064.51v.007c3.319 1.75 4.904 3.901 4.904 3.901l1.726 7.771c-2.576-3.821-5.109-6.186-7.727-7.731-2.345-1.375-4.76-2.088-7.335-2.598-2.934-.582-5.255-.927-7.946-.71-6.81.55-9.061 1.788-12.015 3.588-.575.348-1.935 1.447-1.662 1.005 1.555-1.553 3.715-3.016 5.108-3.923 7.754-5.032 17.61-3.399 17.61-3.399 1.488.128 2.835.4 4.045.76z" fill="#27A3EC"/><path fill="#2F4852" d="M18.162 32.715h-4.475L25.073 0h5.221l11.435 32.715h-4.624l-9.496-28.98z"/></g></svg>