<svg width="505" height="277" viewBox="0 0 505 277" xmlns="http://www.w3.org/2000/svg" xmlns:xlink="http://www.w3.org/1999/xlink"><title>apProcessPart1</title><defs><rect id="b" width="145" height="145" rx="10"/><filter x="-3.1%" y="-1%" width="104.1%" height="104.1%" filterUnits="objectBoundingBox" id="a"><feOffset dx="-2" dy="2" in="SourceAlpha" result="shadowOffsetOuter1"/><feGaussianBlur stdDeviation=".5" in="shadowOffsetOuter1" result="shadowBlurOuter1"/><feColorMatrix values="0 0 0 0 0.0470588235 0 0 0 0 0.345098039 0 0 0 0 0.431372549 0 0 0 0.5 0" in="shadowBlurOuter1"/></filter><rect id="d" width="145" height="145" rx="10"/><filter x="-3.1%" y="-1%" width="104.1%" height="104.1%" filterUnits="objectBoundingBox" id="c"><feOffset dx="-2" dy="2" in="SourceAlpha" result="shadowOffsetOuter1"/><feGaussianBlur stdDeviation=".5" in="shadowOffsetOuter1" result="shadowBlurOuter1"/><feColorMatrix values="0 0 0 0 0.0470588235 0 0 0 0 0.345098039 0 0 0 0 0.431372549 0 0 0 0.5 0" in="shadowBlurOuter1"/></filter><rect id="f" width="145" height="145" rx="10"/><filter x="-3.1%" y="-1%" width="104.1%" height="104.1%" filterUnits="objectBoundingBox" id="e"><feOffset dx="-2" dy="2" in="SourceAlpha" result="shadowOffsetOuter1"/><feGaussianBlur stdDeviation=".5" in="shadowOffsetOuter1" result="shadowBlurOuter1"/><feColorMatrix values="0 0 0 0 0.0470588235 0 0 0 0 0.345098039 0 0 0 0 0.431372549 0 0 0 0.5 0" in="shadowBlurOuter1"/></filter></defs><g fill="none" fill-rule="evenodd"><path fill="#FFF" d="M0 0h505v277H0z"/><g transform="translate(345 15)"><use fill="#000" filter="url(#a)" xlink:href="#b"/><use fill="#E8F3F1" xlink:href="#b"/></g><path d="M365.54 82.204c-.749 0-1.471-.142-2.168-.425a5.656 5.656 0 0 1-1.845-1.207l1.156-1.343c.397.374.85.677 1.36.91.51.232 1.02.348 1.53.348.635 0 1.117-.13 1.445-.391.33-.26.493-.606.493-1.037 0-.227-.042-.42-.127-.578a1.31 1.31 0 0 0-.357-.416 3.076 3.076 0 0 0-.544-.332c-.21-.102-.44-.204-.689-.306l-1.53-.663a5.267 5.267 0 0 1-.807-.425 3.538 3.538 0 0 1-.723-.612 2.833 2.833 0 0 1-.518-.833 2.844 2.844 0 0 1-.196-1.088c0-.442.094-.853.281-1.232.187-.38.445-.712.774-.995a3.576 3.576 0 0 1 1.181-.663c.459-.159.96-.238 1.505-.238.646 0 1.269.127 1.87.383.6.255 1.116.597 1.547 1.028l-1.003 1.258a4.953 4.953 0 0 0-1.122-.697 3.167 3.167 0 0 0-1.292-.255c-.533 0-.958.116-1.275.349-.318.232-.476.552-.476.96 0 .215.048.4.144.553.096.153.227.288.391.408.164.119.354.226.57.323.215.096.436.19.663.28l1.513.629c.328.136.628.295.9.476.273.181.508.391.706.629.198.238.354.513.468.825.113.311.17.671.17 1.079 0 .453-.091.878-.272 1.275a3.062 3.062 0 0 1-.791 1.046 3.88 3.88 0 0 1-1.258.714c-.493.175-1.051.263-1.674.263zm5.847-.204v-8.347h1.955V82h-1.955zm.986-9.809c-.35 0-.64-.102-.867-.306a1.024 1.024 0 0 1-.34-.799c0-.329.114-.598.34-.808.227-.21.516-.314.867-.314.352 0 .64.105.867.314.227.21.34.48.34.808 0 .329-.113.595-.34.799-.226.204-.515.306-.867.306zm6.375 13.498c-.498 0-.96-.045-1.385-.136a3.622 3.622 0 0 1-1.096-.408 2.14 2.14 0 0 1-.723-.68 1.716 1.716 0 0 1-.264-.952c0-.351.102-.677.306-.978.205-.3.5-.569.884-.807v-.068a1.694 1.694 0 0 1-.535-.544c-.142-.227-.213-.51-.213-.85 0-.329.094-.626.281-.892a2.7 2.7 0 0 1 .637-.655v-.068a2.987 2.987 0 0 1-.756-.893c-.221-.38-.332-.818-.332-1.317 0-.476.091-.901.272-1.275.182-.374.423-.688.723-.944.3-.255.649-.447 1.045-.577a4.004 4.004 0 0 1 1.913-.137c.21.04.4.088.57.145h2.991v1.445h-1.53c.137.159.25.36.34.603a2.3 2.3 0 0 1 .136.808c0 .465-.082.873-.246 1.224a2.546 2.546 0 0 1-.672.884c-.283.238-.617.42-1.003.544a4.009 4.009 0 0 1-1.24.187c-.182 0-.369-.017-.561-.051a2.79 2.79 0 0 1-.578-.17 1.774 1.774 0 0 0-.298.34c-.074.113-.11.266-.11.459 0 .238.099.425.297.561.198.136.552.204 1.063.204h1.479c1.008 0 1.77.161 2.286.484.516.324.774.848.774 1.573 0 .408-.105.793-.315 1.156-.21.363-.507.674-.892.935-.386.26-.853.467-1.403.62-.55.154-1.164.23-1.844.23zm.102-7.565c.397 0 .737-.144 1.02-.434.284-.289.425-.705.425-1.249 0-.521-.138-.926-.416-1.216a1.37 1.37 0 0 0-1.029-.433 1.41 1.41 0 0 0-1.037.425c-.283.283-.425.691-.425 1.224 0 .544.142.96.425 1.25.284.289.63.433 1.037.433zm.204 6.29c.68 0 1.227-.133 1.641-.4.414-.266.62-.58.62-.943 0-.329-.127-.55-.382-.663-.255-.113-.62-.17-1.097-.17h-1.139a4.62 4.62 0 0 1-1.139-.119c-.43.329-.646.697-.646 1.105 0 .374.19.666.57.875.38.21.904.315 1.572.315zM384.681 82v-8.347h1.615l.136 1.122h.068c.375-.363.78-.674 1.216-.935.436-.26.943-.391 1.521-.391.896 0 1.547.286 1.955.858.409.573.612 1.392.612 2.457V82h-1.955v-4.981c0-.691-.101-1.179-.306-1.462-.204-.283-.538-.425-1.003-.425-.362 0-.682.088-.96.264a6.127 6.127 0 0 0-.944.773V82h-1.955zm15.334 0v-9.452h-3.213v-1.666h8.398v1.666h-3.213V82h-1.972zm6.868 0v-8.347h1.615l.136 1.479h.068c.295-.544.652-.96 1.071-1.25.42-.289.85-.433 1.292-.433.397 0 .714.057.953.17l-.34 1.7a3.57 3.57 0 0 0-.408-.102 2.62 2.62 0 0 0-.46-.034c-.328 0-.674.127-1.037.382-.362.256-.674.7-.935 1.335V82h-1.955zm9.911.204a4.33 4.33 0 0 1-1.615-.298 3.835 3.835 0 0 1-1.309-.858 3.916 3.916 0 0 1-.875-1.369c-.21-.538-.315-1.153-.315-1.844 0-.68.108-1.292.323-1.836a4.212 4.212 0 0 1 .859-1.377 3.804 3.804 0 0 1 1.233-.867 3.52 3.52 0 0 1 1.428-.306c.566 0 1.065.096 1.496.289.43.193.79.465 1.079.816.289.351.507.77.654 1.258.148.487.221 1.02.221 1.598 0 .193-.008.374-.025.544-.017.17-.037.306-.06.408h-5.303c.09.748.354 1.323.79 1.725.436.403.994.604 1.674.604.363 0 .7-.054 1.012-.162.312-.107.62-.257.926-.45l.663 1.224c-.396.26-.838.476-1.326.646-.487.17-.997.255-1.53.255zm-2.227-5.168h3.706c0-.646-.138-1.153-.416-1.522-.278-.368-.705-.552-1.284-.552-.498 0-.934.176-1.308.527-.375.351-.607.867-.697 1.547zm9.3 5.168c-.737 0-1.332-.224-1.786-.672-.453-.447-.68-1.04-.68-1.776 0-.442.094-.836.281-1.182.187-.345.482-.643.884-.892.402-.25.912-.459 1.53-.629.618-.17 1.357-.3 2.218-.391a3.15 3.15 0 0 0-.093-.62 1.426 1.426 0 0 0-.255-.528 1.186 1.186 0 0 0-.467-.357 1.769 1.769 0 0 0-.715-.127c-.408 0-.807.08-1.198.238a8.06 8.06 0 0 0-1.147.578l-.714-1.309c.464-.295.985-.55 1.564-.765a5.314 5.314 0 0 1 1.87-.323c1.042 0 1.821.309 2.337.926.516.618.773 1.51.773 2.678V82h-1.615l-.136-.918h-.067a6.133 6.133 0 0 1-1.199.799 3.021 3.021 0 0 1-1.385.323zm.628-1.53c.34 0 .65-.08.927-.238.278-.159.575-.385.892-.68v-1.87a8.924 8.924 0 0 0-1.428.272c-.385.113-.696.24-.935.382-.238.142-.407.304-.51.485a1.16 1.16 0 0 0-.153.578c0 .374.114.646.34.816.227.17.516.255.867.255zm9.061 1.53c-.487 0-.898-.074-1.232-.221a2.09 2.09 0 0 1-.816-.62 2.569 2.569 0 0 1-.459-.953 4.872 4.872 0 0 1-.145-1.232V75.2h-1.19v-1.462l1.292-.085.238-2.278h1.632v2.278h2.125V75.2h-2.125v3.978c0 .975.391 1.462 1.173 1.462.148 0 .298-.017.451-.051.153-.034.292-.08.416-.136l.34 1.445c-.226.08-.484.15-.773.212a4.389 4.389 0 0 1-.927.094zm3.196-.204v-8.347h1.615l.136 1.139h.068a5.857 5.857 0 0 1 1.148-.952c.414-.26.881-.391 1.402-.391.613 0 1.103.13 1.471.391.368.26.649.629.841 1.105.397-.43.81-.788 1.241-1.071.431-.283.913-.425 1.445-.425.885 0 1.536.286 1.955.858.42.573.63 1.392.63 2.457V82h-1.973v-4.981c0-.691-.104-1.179-.314-1.462-.21-.283-.53-.425-.96-.425-.522 0-1.105.346-1.752 1.037V82h-1.955v-4.981c0-.691-.104-1.179-.314-1.462-.21-.283-.535-.425-.978-.425-.52 0-1.104.346-1.75 1.037V82h-1.956zm17.901.204a4.33 4.33 0 0 1-1.615-.298 3.835 3.835 0 0 1-1.309-.858 3.916 3.916 0 0 1-.875-1.369c-.21-.538-.315-1.153-.315-1.844 0-.68.108-1.292.323-1.836a4.212 4.212 0 0 1 .859-1.377 3.804 3.804 0 0 1 1.232-.867 3.52 3.52 0 0 1 1.428-.306c.567 0 1.066.096 1.496.289.431.193.791.465 1.08.816.289.351.507.77.654 1.258.148.487.221 1.02.221 1.598 0 .193-.008.374-.025.544-.017.17-.037.306-.06.408h-5.304c.091.748.355 1.323.791 1.725.436.403.994.604 1.674.604.363 0 .7-.054 1.012-.162.312-.107.62-.257.926-.45l.663 1.224c-.396.26-.838.476-1.326.646-.487.17-.997.255-1.53.255zm-2.227-5.168h3.706c0-.646-.138-1.153-.416-1.522-.278-.368-.705-.552-1.284-.552-.498 0-.934.176-1.309.527-.374.351-.606.867-.697 1.547zM459.702 82v-8.347h1.615l.136 1.122h.069c.374-.363.779-.674 1.215-.935.436-.26.943-.391 1.521-.391.896 0 1.547.286 1.955.858.409.573.612 1.392.612 2.457V82h-1.955v-4.981c0-.691-.101-1.179-.306-1.462-.204-.283-.538-.425-1.003-.425-.362 0-.682.088-.96.264a6.127 6.127 0 0 0-.944.773V82h-1.954zm12.461.204c-.487 0-.898-.074-1.232-.221a2.09 2.09 0 0 1-.816-.62 2.569 2.569 0 0 1-.459-.953 4.872 4.872 0 0 1-.145-1.232V75.2h-1.19v-1.462l1.292-.085.239-2.278h1.632v2.278h2.125V75.2h-2.125v3.978c0 .975.39 1.462 1.173 1.462.147 0 .297-.017.45-.051.153-.034.292-.08.417-.136l.34 1.445c-.227.08-.485.15-.774.212a4.389 4.389 0 0 1-.926.094zm-100.402 14.88l-.39 1.36h2.839l-.391-1.36a46.457 46.457 0 0 1-.519-1.819c-.164-.623-.326-1.241-.485-1.853h-.068c-.158.623-.317 1.244-.476 1.861a39.98 39.98 0 0 1-.51 1.811zM368.038 103l3.621-11.118h2.312L377.592 103h-2.074l-.867-3.009h-3.74l-.867 3.009h-2.006zm13.668 3.689c-.498 0-.96-.045-1.385-.136a3.622 3.622 0 0 1-1.096-.408 2.14 2.14 0 0 1-.723-.68 1.716 1.716 0 0 1-.263-.952c0-.351.101-.677.306-.978.204-.3.498-.569.884-.807v-.068a1.694 1.694 0 0 1-.536-.544c-.142-.227-.212-.51-.212-.85 0-.329.093-.626.28-.893a2.7 2.7 0 0 1 .638-.654v-.068a2.987 2.987 0 0 1-.757-.893c-.221-.38-.331-.818-.331-1.317 0-.476.09-.901.272-1.275.18-.374.422-.688.722-.944.3-.255.649-.447 1.046-.578a4.004 4.004 0 0 1 1.912-.136c.21.04.4.088.57.145h2.992v1.445h-1.53c.136.159.249.36.34.603a2.3 2.3 0 0 1 .136.808c0 .465-.083.873-.247 1.224a2.546 2.546 0 0 1-.671.884c-.284.238-.618.42-1.003.544a4.009 4.009 0 0 1-1.241.187c-.182 0-.369-.017-.561-.051a2.79 2.79 0 0 1-.578-.17 1.774 1.774 0 0 0-.298.34c-.074.113-.11.266-.11.459 0 .238.099.425.297.561.198.136.552.204 1.063.204h1.479c1.008 0 1.77.161 2.286.484.516.324.774.848.774 1.573 0 .408-.105.793-.315 1.156-.21.363-.507.674-.892.935-.386.26-.853.467-1.403.62-.55.154-1.164.23-1.844.23zm.102-7.565c.397 0 .737-.144 1.02-.434.284-.289.425-.705.425-1.249 0-.521-.138-.926-.416-1.216a1.37 1.37 0 0 0-1.029-.433 1.41 1.41 0 0 0-1.037.425c-.283.283-.425.691-.425 1.224 0 .544.142.96.425 1.25.284.289.63.433 1.037.433zm.204 6.29c.68 0 1.227-.133 1.641-.4.414-.266.62-.58.62-.943 0-.329-.127-.55-.382-.663-.255-.113-.62-.17-1.097-.17h-1.139a4.62 4.62 0 0 1-1.139-.119c-.43.329-.646.697-.646 1.105 0 .374.19.666.57.875.38.21.904.315 1.572.315zM387.64 103v-8.347h1.615l.136 1.479h.069c.294-.544.651-.96 1.07-1.25.42-.289.85-.433 1.292-.433.397 0 .714.057.952.17l-.34 1.7a3.57 3.57 0 0 0-.407-.102 2.62 2.62 0 0 0-.46-.034c-.328 0-.674.127-1.036.382-.363.256-.675.7-.935 1.335v5.1h-1.955zm9.911.204a4.33 4.33 0 0 1-1.615-.298 3.835 3.835 0 0 1-1.309-.858 3.916 3.916 0 0 1-.875-1.369c-.21-.538-.314-1.153-.314-1.844 0-.68.107-1.292.322-1.836a4.212 4.212 0 0 1 .859-1.377 3.804 3.804 0 0 1 1.232-.867 3.52 3.52 0 0 1 1.428-.306c.567 0 1.066.096 1.496.289.431.193.791.465 1.08.816.289.351.507.77.654 1.258.148.487.221 1.02.221 1.598 0 .193-.008.374-.025.544-.017.17-.037.306-.06.408h-5.304c.091.748.355 1.323.791 1.725.436.403.994.604 1.674.604.363 0 .7-.054 1.012-.162.312-.107.62-.257.926-.45l.663 1.224c-.396.26-.838.476-1.326.646-.487.17-.997.255-1.53.255zm-2.227-5.168h3.707c0-.646-.14-1.153-.417-1.522-.278-.368-.705-.552-1.283-.552-.5 0-.935.176-1.31.527-.374.351-.606.867-.696 1.547zm10.847 5.168a4.33 4.33 0 0 1-1.615-.298 3.835 3.835 0 0 1-1.31-.858 3.916 3.916 0 0 1-.875-1.369c-.21-.538-.314-1.153-.314-1.844 0-.68.107-1.292.323-1.836a4.212 4.212 0 0 1 .858-1.377 3.804 3.804 0 0 1 1.232-.867 3.52 3.52 0 0 1 1.428-.306c.567 0 1.066.096 1.496.289.431.193.791.465 1.08.816.289.351.507.77.654 1.258.148.487.221 1.02.221 1.598 0 .193-.008.374-.025.544-.017.17-.037.306-.06.408h-5.304c.091.748.355 1.323.791 1.725.436.403.994.604 1.674.604.363 0 .7-.054 1.012-.162.312-.107.62-.257.926-.45l.663 1.224c-.396.26-.838.476-1.326.646-.487.17-.997.255-1.53.255zm-2.227-5.168h3.706c0-.646-.14-1.153-.417-1.522-.278-.368-.705-.552-1.283-.552-.5 0-.935.176-1.31.527-.374.351-.606.867-.696 1.547zm7.276 4.964v-8.347h1.615l.136 1.139h.068a5.857 5.857 0 0 1 1.147-.952c.414-.26.881-.391 1.403-.391.612 0 1.102.13 1.47.391.368.26.649.629.842 1.105.396-.43.81-.788 1.24-1.071.431-.283.913-.425 1.446-.425.884 0 1.535.286 1.955.858.419.573.629 1.392.629 2.457V103h-1.972v-4.981c0-.691-.105-1.179-.315-1.462-.21-.283-.53-.425-.96-.425-.522 0-1.105.346-1.751 1.037V103h-1.955v-4.981c0-.691-.105-1.179-.315-1.462-.21-.283-.535-.425-.977-.425-.522 0-1.105.346-1.751 1.037V103h-1.955zm17.9.204a4.33 4.33 0 0 1-1.614-.298 3.835 3.835 0 0 1-1.31-.858 3.916 3.916 0 0 1-.875-1.369c-.21-.538-.314-1.153-.314-1.844 0-.68.107-1.292.323-1.836a4.212 4.212 0 0 1 .858-1.377 3.804 3.804 0 0 1 1.233-.867 3.52 3.52 0 0 1 1.428-.306c.566 0 1.065.096 1.496.289.43.193.79.465 1.079.816.289.351.507.77.655 1.258.147.487.22 1.02.22 1.598 0 .193-.008.374-.025.544-.017.17-.037.306-.06.408h-5.304c.091.748.355 1.323.791 1.725.436.403.994.604 1.674.604.363 0 .7-.054 1.012-.162.312-.107.62-.257.927-.45l.663 1.224c-.397.26-.84.476-1.326.646-.488.17-.998.255-1.53.255zm-2.226-5.168h3.706c0-.646-.14-1.153-.417-1.522-.278-.368-.705-.552-1.283-.552-.5 0-.935.176-1.31.527-.374.351-.606.867-.696 1.547zm7.276 4.964v-8.347h1.615l.136 1.122h.068c.374-.363.779-.674 1.215-.935.436-.26.943-.391 1.522-.391.895 0 1.546.286 1.955.858.408.573.612 1.392.612 2.457V103h-1.955v-4.981c0-.691-.102-1.179-.306-1.462-.205-.283-.539-.425-1.003-.425-.363 0-.683.088-.961.263a6.127 6.127 0 0 0-.943.774V103h-1.955zm12.46.204c-.487 0-.898-.074-1.232-.221a2.09 2.09 0 0 1-.816-.62 2.569 2.569 0 0 1-.459-.953 4.872 4.872 0 0 1-.144-1.232V96.2h-1.19v-1.462l1.292-.085.238-2.278h1.632v2.278h2.125V96.2h-2.125v3.978c0 .975.39 1.462 1.173 1.462.147 0 .297-.017.45-.051.153-.034.292-.08.417-.136l.34 1.445c-.227.08-.485.15-.774.212a4.389 4.389 0 0 1-.927.094zm5.509 2.822a16.24 16.24 0 0 1-1.658-3.621c-.391-1.247-.587-2.624-.587-4.131 0-1.507.196-2.884.587-4.131a16.24 16.24 0 0 1 1.657-3.621l1.225.544a12.924 12.924 0 0 0-1.42 3.485 15.567 15.567 0 0 0 0 7.446c.3 1.224.773 2.386 1.42 3.485l-1.224.544zm5.525-2.822c-.579 0-1.148-.11-1.709-.332a5.528 5.528 0 0 1-1.453-.824l.918-1.258c.374.295.745.524 1.113.688.368.165.768.247 1.199.247.453 0 .787-.093 1.003-.28a.913.913 0 0 0 .323-.723.71.71 0 0 0-.154-.45 1.47 1.47 0 0 0-.408-.349 3.922 3.922 0 0 0-.578-.28c-.215-.086-.43-.173-.645-.264-.273-.102-.55-.221-.833-.357a3.349 3.349 0 0 1-.757-.493 2.487 2.487 0 0 1-.544-.672 1.845 1.845 0 0 1-.213-.909c0-.737.272-1.337.816-1.802.545-.465 1.287-.697 2.227-.697.579 0 1.1.102 1.564.306.465.204.867.436 1.207.697l-.9 1.19a4.663 4.663 0 0 0-.893-.519c-.3-.13-.615-.195-.944-.195-.419 0-.728.088-.926.263a.84.84 0 0 0-.298.655c0 .17.049.314.145.433.096.12.224.224.382.315.16.09.343.176.553.255.21.08.428.159.654.238.284.102.567.218.85.348.284.13.542.292.774.485.232.193.42.428.561.705.142.278.212.61.212.995a2.336 2.336 0 0 1-.833 1.828 3.022 3.022 0 0 1-1.02.552 4.4 4.4 0 0 1-1.394.204zm5.712 2.822l-1.224-.544c.646-1.1 1.119-2.261 1.419-3.485a15.567 15.567 0 0 0 0-7.446 12.924 12.924 0 0 0-1.42-3.485l1.225-.544a16.24 16.24 0 0 1 1.657 3.621c.391 1.247.587 2.624.587 4.131 0 1.507-.196 2.884-.587 4.131a16.24 16.24 0 0 1-1.657 3.621zM347.938 183v-7.618h-2.574v-.91h6.24v.91h-2.574V183h-1.092zm5.096 0v-6.318h.884l.091 1.144h.039a2.92 2.92 0 0 1 .787-.949 1.629 1.629 0 0 1 1.007-.351c.251 0 .477.043.676.13l-.208.936a1.697 1.697 0 0 0-.611-.104c-.269 0-.548.108-.839.325-.29.217-.543.594-.76 1.131V183h-1.066zm7.072.156c-.425 0-.821-.076-1.19-.227a2.82 2.82 0 0 1-.962-.65 3.01 3.01 0 0 1-.643-1.034 3.869 3.869 0 0 1-.234-1.391c0-.52.08-.986.24-1.398.16-.411.373-.76.637-1.046.265-.286.566-.505.904-.656a2.545 2.545 0 0 1 1.053-.228c.399 0 .756.07 1.072.208.317.139.581.338.793.598.213.26.375.572.488.936.113.364.169.771.169 1.222 0 .113-.002.223-.006.331a1.601 1.601 0 0 1-.033.28h-4.264c.043.676.253 1.211.63 1.606.378.394.87.591 1.476.591.303 0 .583-.046.838-.137.256-.09.501-.21.735-.357l.377.702a5.382 5.382 0 0 1-.923.455c-.338.13-.724.195-1.157.195zm-1.989-3.822h3.38c0-.641-.136-1.129-.41-1.463-.273-.333-.656-.5-1.15-.5-.225 0-.44.043-.643.13a1.694 1.694 0 0 0-.553.383 2.102 2.102 0 0 0-.41.618c-.108.243-.18.52-.214.832zm7.332 3.822c-.529 0-.968-.156-1.32-.468-.35-.312-.526-.754-.526-1.326 0-.693.308-1.224.923-1.593.615-.368 1.599-.626 2.951-.773 0-.2-.02-.394-.058-.585a1.463 1.463 0 0 0-.202-.507 1.059 1.059 0 0 0-.396-.357c-.17-.091-.384-.137-.644-.137-.364 0-.706.07-1.027.208a5.01 5.01 0 0 0-.858.468l-.416-.741c.295-.19.654-.375 1.079-.553a3.603 3.603 0 0 1 1.404-.266c.771 0 1.33.236 1.677.708.347.473.52 1.103.52 1.892V183h-.884l-.091-.754h-.039a5.346 5.346 0 0 1-.975.643c-.347.178-.72.267-1.118.267zm.312-.858a1.8 1.8 0 0 0 .858-.215 4.3 4.3 0 0 0 .858-.63v-1.755c-.529.07-.973.152-1.332.247-.36.095-.65.208-.871.338a1.31 1.31 0 0 0-.481.449c-.1.169-.15.353-.15.552 0 .364.108.624.325.78.217.156.481.234.793.234zm6.773.858c-.338 0-.622-.052-.851-.156a1.464 1.464 0 0 1-.56-.429 1.672 1.672 0 0 1-.305-.663 3.777 3.777 0 0 1-.091-.858v-3.497h-.936v-.806l.988-.065.13-1.768h.897v1.768h1.703v.871h-1.703v3.51c0 .39.071.691.215.904.143.212.396.318.76.318.113 0 .234-.017.364-.052.13-.035.247-.074.351-.117l.208.806c-.173.06-.362.115-.566.162a2.646 2.646 0 0 1-.604.072zm2.405-.156v-6.318h.884l.091.91h.039c.277-.303.578-.557.904-.76a1.958 1.958 0 0 1 1.059-.306c.485 0 .864.106 1.138.319.273.212.474.509.604.89.33-.364.66-.656.995-.878a1.927 1.927 0 0 1 1.085-.331c.65 0 1.133.208 1.45.624.316.416.474 1.031.474 1.846V183h-1.066v-3.861c0-.598-.095-1.03-.286-1.294-.19-.264-.485-.396-.884-.396-.477 0-1.005.325-1.586.975V183h-1.066v-3.861c0-.598-.095-1.03-.286-1.294-.19-.264-.49-.396-.897-.396-.477 0-1.005.325-1.586.975V183h-1.066zm13.338.156c-.425 0-.821-.076-1.19-.227a2.82 2.82 0 0 1-.961-.65 3.01 3.01 0 0 1-.644-1.034 3.869 3.869 0 0 1-.234-1.391c0-.52.08-.986.24-1.398.16-.411.373-.76.638-1.046.264-.286.565-.505.903-.656a2.545 2.545 0 0 1 1.053-.228c.399 0 .756.07 1.073.208.316.139.58.338.793.598.212.26.374.572.487.936.113.364.169.771.169 1.222 0 .113-.002.223-.006.331a1.601 1.601 0 0 1-.033.28h-4.264c.043.676.253 1.211.63 1.606.378.394.87.591 1.476.591.303 0 .583-.046.839-.137.255-.09.5-.21.734-.357l.377.702a5.382 5.382 0 0 1-.923.455c-.338.13-.724.195-1.157.195zm-1.989-3.822h3.38c0-.641-.136-1.129-.41-1.463-.273-.333-.656-.5-1.15-.5-.225 0-.44.043-.643.13a1.694 1.694 0 0 0-.553.383 2.102 2.102 0 0 0-.41.618c-.108.243-.18.52-.214.832zm5.876 3.666v-6.318h.884l.091.91h.039c.303-.303.622-.557.956-.76a2.188 2.188 0 0 1 1.163-.306c.667 0 1.155.208 1.463.624.307.416.461 1.031.461 1.846V183h-1.066v-3.861c0-.598-.095-1.03-.286-1.294-.19-.264-.494-.396-.91-.396-.33 0-.62.082-.871.247a5.65 5.65 0 0 0-.858.728V183h-1.066zm9.1.156c-.338 0-.622-.052-.851-.156a1.464 1.464 0 0 1-.56-.429 1.672 1.672 0 0 1-.305-.663 3.777 3.777 0 0 1-.091-.858v-3.497h-.936v-.806l.988-.065.13-1.768h.897v1.768h1.703v.871h-1.703v3.51c0 .39.071.691.215.904.143.212.396.318.76.318.113 0 .234-.017.364-.052.13-.035.247-.074.351-.117l.208.806c-.173.06-.362.115-.565.162a2.646 2.646 0 0 1-.605.072zm6.461 0c-.529 0-.968-.156-1.32-.468-.35-.312-.526-.754-.526-1.326 0-.693.308-1.224.923-1.593.615-.368 1.599-.626 2.951-.773 0-.2-.02-.394-.058-.585a1.463 1.463 0 0 0-.202-.507 1.059 1.059 0 0 0-.396-.357c-.17-.091-.384-.137-.644-.137-.364 0-.706.07-1.027.208a5.01 5.01 0 0 0-.858.468l-.416-.741c.295-.19.654-.375 1.079-.553a3.603 3.603 0 0 1 1.404-.266c.771 0 1.33.236 1.677.708.347.473.52 1.103.52 1.892V183h-.884l-.091-.754h-.039a5.346 5.346 0 0 1-.975.643c-.347.178-.72.267-1.118.267zm.312-.858a1.8 1.8 0 0 0 .858-.215 4.3 4.3 0 0 0 .858-.63v-1.755c-.529.07-.973.152-1.332.247-.36.095-.65.208-.871.338a1.31 1.31 0 0 0-.481.449c-.1.169-.15.353-.15.552 0 .364.108.624.325.78.217.156.481.234.793.234zm6.916 3.614c-.39 0-.745-.037-1.066-.11a2.593 2.593 0 0 1-.825-.332 1.647 1.647 0 0 1-.533-.533 1.38 1.38 0 0 1-.189-.728c0-.269.082-.524.247-.767.165-.243.39-.464.676-.663v-.052a1.146 1.146 0 0 1-.559-1.027c0-.269.074-.503.221-.702.147-.2.303-.355.468-.468v-.052a2.585 2.585 0 0 1-.565-.696 1.966 1.966 0 0 1-.254-1.007c0-.347.063-.659.189-.936.125-.277.296-.513.513-.708.217-.196.47-.345.76-.449a2.697 2.697 0 0 1 1.814 0h2.197v.819h-1.3c.147.147.27.334.37.559.1.225.15.472.15.741 0 .338-.06.643-.182.917a2.003 2.003 0 0 1-.494.689 2.262 2.262 0 0 1-.734.435 2.588 2.588 0 0 1-.904.156c-.156 0-.316-.02-.481-.058a2.388 2.388 0 0 1-.468-.163 1.524 1.524 0 0 0-.286.319.768.768 0 0 0-.117.435c0 .2.078.364.234.494.156.13.45.195.884.195h1.222c.737 0 1.29.12 1.658.357.368.239.552.622.552 1.151 0 .295-.074.574-.221.838-.147.265-.36.497-.637.696a3.34 3.34 0 0 1-1.007.475 4.681 4.681 0 0 1-1.333.175zm0-5.629a1.28 1.28 0 0 0 .943-.403 1.35 1.35 0 0 0 .292-.475c.07-.186.104-.396.104-.63 0-.468-.13-.83-.39-1.085a1.303 1.303 0 0 0-.949-.384c-.373 0-.689.128-.949.383-.26.256-.39.618-.39 1.086 0 .234.035.444.104.63a1.323 1.323 0 0 0 .721.774c.16.07.332.104.514.104zm.156 4.888c.303 0 .578-.037.826-.11.247-.074.457-.17.63-.287a1.34 1.34 0 0 0 .403-.409.911.911 0 0 0 .143-.481c0-.295-.108-.498-.325-.611-.217-.113-.533-.169-.949-.169h-1.092c-.121 0-.253-.007-.396-.02a2.028 2.028 0 0 1-.423-.084c-.225.165-.39.338-.494.52a1.092 1.092 0 0 0-.156.546c0 .338.162.607.488.806.325.2.773.299 1.345.299zm4.264-2.171v-6.318h.884l.091 1.144h.039a2.92 2.92 0 0 1 .787-.949 1.629 1.629 0 0 1 1.007-.351c.251 0 .477.043.676.13l-.208.936a1.697 1.697 0 0 0-.611-.104c-.269 0-.548.108-.838.325-.29.217-.544.594-.761 1.131V183h-1.066zm7.072.156c-.425 0-.821-.076-1.19-.227a2.82 2.82 0 0 1-.961-.65 3.01 3.01 0 0 1-.644-1.034 3.869 3.869 0 0 1-.234-1.391c0-.52.08-.986.24-1.398.16-.411.373-.76.638-1.046.264-.286.565-.505.903-.656a2.545 2.545 0 0 1 1.053-.228c.399 0 .756.07 1.073.208.316.139.58.338.793.598.212.26.374.572.487.936.113.364.169.771.169 1.222 0 .113-.002.223-.006.331a1.601 1.601 0 0 1-.033.28h-4.264c.043.676.253 1.211.63 1.606.378.394.87.591 1.476.591.303 0 .583-.046.839-.137.255-.09.5-.21.734-.357l.377.702a5.382 5.382 0 0 1-.923.455c-.338.13-.724.195-1.157.195zm-1.989-3.822h3.38c0-.641-.136-1.129-.41-1.463-.273-.333-.656-.5-1.15-.5-.225 0-.44.043-.643.13a1.694 1.694 0 0 0-.553.383 2.102 2.102 0 0 0-.41.618c-.108.243-.18.52-.214.832zm8.437 3.822c-.425 0-.821-.076-1.19-.227a2.82 2.82 0 0 1-.961-.65 3.01 3.01 0 0 1-.644-1.034 3.869 3.869 0 0 1-.234-1.391c0-.52.08-.986.24-1.398.16-.411.373-.76.638-1.046.264-.286.565-.505.903-.656a2.545 2.545 0 0 1 1.053-.228c.399 0 .756.07 1.073.208.316.139.58.338.793.598.212.26.374.572.487.936.113.364.169.771.169 1.222 0 .113-.002.223-.006.331a1.601 1.601 0 0 1-.033.28h-4.264c.043.676.253 1.211.63 1.606.378.394.87.591 1.476.591.303 0 .583-.046.839-.137.255-.09.5-.21.734-.357l.377.702a5.382 5.382 0 0 1-.923.455c-.338.13-.724.195-1.157.195zm-1.989-3.822h3.38c0-.641-.136-1.129-.41-1.463-.273-.333-.656-.5-1.15-.5-.225 0-.44.043-.643.13a1.694 1.694 0 0 0-.553.383 2.102 2.102 0 0 0-.41.618c-.108.243-.18.52-.214.832zM436.78 183v-6.318h.884l.091.91h.039c.277-.303.578-.557.904-.76a1.958 1.958 0 0 1 1.059-.306c.485 0 .864.106 1.138.319.273.212.474.509.604.89.33-.364.66-.656.995-.878a1.927 1.927 0 0 1 1.085-.331c.65 0 1.133.208 1.45.624.316.416.474 1.031.474 1.846V183h-1.066v-3.861c0-.598-.095-1.03-.286-1.294-.19-.264-.485-.396-.884-.396-.477 0-1.005.325-1.586.975V183h-1.066v-3.861c0-.598-.095-1.03-.286-1.294-.19-.264-.49-.396-.897-.396-.477 0-1.005.325-1.586.975V183h-1.066zm13.338.156c-.425 0-.821-.076-1.19-.227a2.82 2.82 0 0 1-.961-.65 3.01 3.01 0 0 1-.644-1.034 3.869 3.869 0 0 1-.234-1.391c0-.52.08-.986.24-1.398.16-.411.373-.76.638-1.046.264-.286.565-.505.903-.656a2.545 2.545 0 0 1 1.053-.228c.399 0 .756.07 1.073.208.316.139.58.338.793.598.212.26.374.572.487.936.113.364.169.771.169 1.222 0 .113-.002.223-.006.331a1.601 1.601 0 0 1-.033.28h-4.264c.043.676.253 1.211.63 1.606.378.394.87.591 1.476.591.303 0 .583-.046.839-.137.255-.09.5-.21.734-.357l.377.702a5.382 5.382 0 0 1-.923.455c-.338.13-.724.195-1.157.195zm-1.989-3.822h3.38c0-.641-.136-1.129-.41-1.463-.273-.333-.656-.5-1.15-.5-.225 0-.44.043-.643.13a1.694 1.694 0 0 0-.553.383 2.102 2.102 0 0 0-.41.618c-.108.243-.18.52-.214.832zm5.876 3.666v-6.318h.884l.091.91h.039c.303-.303.622-.557.956-.76a2.188 2.188 0 0 1 1.163-.306c.667 0 1.155.208 1.463.624.307.416.461 1.031.461 1.846V183h-1.066v-3.861c0-.598-.095-1.03-.286-1.294-.19-.264-.494-.396-.91-.396-.33 0-.62.082-.871.247a5.65 5.65 0 0 0-.858.728V183h-1.066zm9.1.156c-.338 0-.622-.052-.851-.156a1.464 1.464 0 0 1-.56-.429 1.672 1.672 0 0 1-.305-.663 3.777 3.777 0 0 1-.091-.858v-3.497h-.936v-.806l.988-.065.13-1.768h.897v1.768h1.703v.871h-1.703v3.51c0 .39.071.691.215.904.143.212.396.318.76.318.113 0 .234-.017.364-.052.13-.035.247-.074.351-.117l.208.806c-.173.06-.362.115-.565.162a2.646 2.646 0 0 1-.605.072zM346.248 200v-5.447h-.858v-.806l.858-.065v-1.001c0-.65.15-1.161.449-1.534.299-.373.764-.559 1.397-.559.2 0 .388.02.566.059.177.038.34.088.487.149l-.234.819a1.745 1.745 0 0 0-.715-.156c-.59 0-.884.407-.884 1.222v1.001h1.339v.871h-1.339V200h-1.066zm6.071.156c-.39 0-.76-.074-1.111-.221a2.738 2.738 0 0 1-.93-.643 3.133 3.133 0 0 1-.643-1.04 3.827 3.827 0 0 1-.241-1.398c0-.529.08-.999.24-1.41.16-.412.375-.761.644-1.047.269-.286.578-.503.93-.65a2.843 2.843 0 0 1 1.111-.221c.39 0 .76.074 1.112.221.35.147.66.364.929.65.269.286.483.635.644 1.047.16.411.24.881.24 1.41 0 .52-.08.986-.24 1.397-.16.412-.375.759-.644 1.04a2.738 2.738 0 0 1-.93.644 2.843 2.843 0 0 1-1.111.221zm0-.884c.269 0 .516-.058.741-.175.225-.118.418-.282.579-.495.16-.212.283-.465.37-.76.087-.295.13-.624.13-.988s-.043-.695-.13-.995a2.42 2.42 0 0 0-.37-.773 1.676 1.676 0 0 0-.579-.5 1.584 1.584 0 0 0-.741-.176c-.269 0-.516.058-.741.175a1.676 1.676 0 0 0-.578.501 2.42 2.42 0 0 0-.371.773c-.087.3-.13.631-.13.995s.043.693.13.988c.087.295.21.548.37.76.16.213.354.377.579.494.225.118.472.176.741.176zm4.589.728v-6.318h.884l.091 1.144h.039a2.92 2.92 0 0 1 .787-.949 1.629 1.629 0 0 1 1.007-.351c.251 0 .477.043.676.13l-.208.936a1.697 1.697 0 0 0-.611-.104c-.269 0-.548.108-.838.325-.29.217-.544.594-.761 1.131V200h-1.066zm4.511 0v-6.318h.884l.091.91h.039c.277-.303.578-.557.904-.76a1.958 1.958 0 0 1 1.059-.306c.485 0 .864.106 1.138.319.273.212.474.509.604.89.33-.364.66-.656.995-.878a1.927 1.927 0 0 1 1.085-.331c.65 0 1.133.208 1.45.624.316.416.474 1.031.474 1.846V200h-1.066v-3.861c0-.598-.095-1.03-.286-1.294-.19-.264-.485-.396-.884-.396-.477 0-1.005.325-1.586.975V200h-1.066v-3.861c0-.598-.095-1.03-.286-1.294-.19-.264-.49-.396-.897-.396-.477 0-1.005.325-1.586.975V200h-1.066zm12.428.156c-.45 0-.88-.082-1.287-.247a4.015 4.015 0 0 1-1.066-.624l.533-.715c.277.225.561.407.852.546.29.139.626.208 1.007.208.416 0 .728-.095.936-.286a.915.915 0 0 0 .312-.702.719.719 0 0 0-.13-.429 1.293 1.293 0 0 0-.331-.319 2.428 2.428 0 0 0-.462-.24l-.52-.208a8.735 8.735 0 0 1-.676-.266 2.7 2.7 0 0 1-.604-.364 1.842 1.842 0 0 1-.436-.501 1.331 1.331 0 0 1-.169-.689c0-.251.05-.487.15-.708.1-.222.242-.412.429-.572.186-.16.413-.286.682-.377.269-.092.572-.137.91-.137.399 0 .765.07 1.099.208.333.139.621.308.864.507l-.507.676a3.396 3.396 0 0 0-.676-.403 1.867 1.867 0 0 0-.767-.156c-.399 0-.691.091-.877.273a.863.863 0 0 0-.28.637c0 .147.039.275.117.383.078.109.182.204.312.286.13.083.28.156.449.221.169.066.344.133.526.202.225.087.453.178.683.273.23.095.435.214.617.357.182.144.331.319.449.527.117.208.175.46.175.754a1.733 1.733 0 0 1-.591 1.326c-.196.173-.438.31-.728.41-.29.1-.622.149-.995.149zm7.852 0c-.529 0-.968-.156-1.32-.468-.35-.312-.526-.754-.526-1.326 0-.693.308-1.224.923-1.593.615-.368 1.599-.626 2.951-.773 0-.2-.02-.394-.058-.585a1.463 1.463 0 0 0-.202-.507 1.059 1.059 0 0 0-.396-.357c-.17-.091-.384-.137-.644-.137-.364 0-.706.07-1.027.208a5.01 5.01 0 0 0-.858.468l-.416-.741c.295-.19.654-.375 1.079-.553a3.603 3.603 0 0 1 1.404-.266c.771 0 1.33.236 1.677.708.347.473.52 1.103.52 1.892V200h-.884l-.091-.754h-.039a5.346 5.346 0 0 1-.975.643c-.347.178-.72.267-1.118.267zm.312-.858a1.8 1.8 0 0 0 .858-.215 4.3 4.3 0 0 0 .858-.63v-1.755c-.529.07-.973.152-1.332.247-.36.095-.65.208-.871.338a1.31 1.31 0 0 0-.481.449c-.1.169-.15.353-.15.552 0 .364.108.624.325.78.217.156.481.234.793.234zm4.784.702v-6.318h.884l.091 1.144h.039a2.92 2.92 0 0 1 .787-.949 1.629 1.629 0 0 1 1.007-.351c.251 0 .477.043.676.13l-.208.936a1.697 1.697 0 0 0-.611-.104c-.269 0-.548.108-.838.325-.29.217-.544.594-.761 1.131V200h-1.066zm7.072.156c-.425 0-.821-.076-1.19-.227a2.82 2.82 0 0 1-.961-.65 3.01 3.01 0 0 1-.644-1.034 3.869 3.869 0 0 1-.234-1.391c0-.52.08-.986.24-1.398.16-.411.373-.76.638-1.046.264-.286.565-.505.903-.656a2.545 2.545 0 0 1 1.053-.228c.399 0 .756.07 1.073.208.316.139.58.338.793.598.212.26.374.572.487.936.113.364.169.771.169 1.222 0 .113-.002.223-.006.331a1.601 1.601 0 0 1-.033.28h-4.264c.043.676.253 1.211.63 1.606.378.394.87.591 1.476.591.303 0 .583-.046.839-.137.255-.09.5-.21.734-.357l.377.702a5.382 5.382 0 0 1-.923.455c-.338.13-.724.195-1.157.195zm-1.989-3.822h3.38c0-.641-.136-1.129-.41-1.463-.273-.333-.656-.5-1.15-.5-.225 0-.44.043-.643.13a1.694 1.694 0 0 0-.553.383 2.102 2.102 0 0 0-.41.618c-.108.243-.18.52-.214.832zm11.037 3.822c-.425 0-.821-.076-1.19-.227a2.82 2.82 0 0 1-.961-.65 3.01 3.01 0 0 1-.644-1.034 3.869 3.869 0 0 1-.234-1.391c0-.52.08-.986.24-1.398.16-.411.373-.76.638-1.046.264-.286.565-.505.903-.656a2.545 2.545 0 0 1 1.053-.228c.399 0 .756.07 1.073.208.316.139.58.338.793.598.212.26.374.572.487.936.113.364.169.771.169 1.222 0 .113-.002.223-.006.331a1.601 1.601 0 0 1-.033.28h-4.264c.043.676.253 1.211.63 1.606.378.394.87.591 1.476.591.303 0 .583-.046.839-.137.255-.09.5-.21.734-.357l.377.702a5.382 5.382 0 0 1-.923.455c-.338.13-.724.195-1.157.195zm-1.989-3.822h3.38c0-.641-.136-1.129-.41-1.463-.273-.333-.656-.5-1.15-.5-.225 0-.44.043-.643.13a1.694 1.694 0 0 0-.553.383 2.102 2.102 0 0 0-.41.618c-.108.243-.18.52-.214.832zm5.343.819v-.819h2.99v.819h-2.99zm6.227 3.003c-.45 0-.88-.082-1.287-.247a4.015 4.015 0 0 1-1.066-.624l.533-.715c.277.225.561.407.852.546.29.139.626.208 1.007.208.416 0 .728-.095.936-.286a.915.915 0 0 0 .312-.702.719.719 0 0 0-.13-.429 1.293 1.293 0 0 0-.331-.319 2.428 2.428 0 0 0-.462-.24l-.52-.208a8.735 8.735 0 0 1-.676-.266 2.7 2.7 0 0 1-.604-.364 1.842 1.842 0 0 1-.436-.501 1.331 1.331 0 0 1-.169-.689c0-.251.05-.487.15-.708.1-.222.242-.412.429-.572.186-.16.413-.286.682-.377.269-.092.572-.137.91-.137.399 0 .765.07 1.099.208.333.139.621.308.864.507l-.507.676a3.396 3.396 0 0 0-.676-.403 1.867 1.867 0 0 0-.767-.156c-.399 0-.691.091-.877.273a.863.863 0 0 0-.28.637c0 .147.039.275.117.383.078.109.182.204.312.286.13.083.28.156.449.221.169.066.344.133.526.202.225.087.453.178.683.273.23.095.435.214.617.357.182.144.331.319.449.527.117.208.175.46.175.754a1.733 1.733 0 0 1-.591 1.326c-.196.173-.438.31-.728.41-.29.1-.622.149-.995.149zm3.796-.156v-6.318h1.066V200h-1.066zm.546-7.618a.754.754 0 0 1-.526-.195.639.639 0 0 1-.215-.494c0-.208.071-.375.215-.5a.77.77 0 0 1 .526-.189.77.77 0 0 1 .527.189.633.633 0 0 1 .214.5c0 .2-.071.364-.214.494a.754.754 0 0 1-.527.195zm4.784 10.53c-.39 0-.745-.037-1.066-.11a2.593 2.593 0 0 1-.825-.332 1.647 1.647 0 0 1-.533-.533 1.38 1.38 0 0 1-.189-.728c0-.269.082-.524.247-.767.165-.243.39-.464.676-.663v-.052a1.146 1.146 0 0 1-.559-1.027c0-.269.074-.503.221-.702.147-.2.303-.355.468-.468v-.052a2.585 2.585 0 0 1-.565-.696 1.966 1.966 0 0 1-.254-1.007c0-.347.063-.659.189-.936.125-.277.296-.513.513-.708.217-.196.47-.345.76-.449a2.697 2.697 0 0 1 1.814 0h2.197v.819h-1.3c.147.147.27.334.37.559.1.225.15.472.15.741 0 .338-.06.643-.182.917a2.003 2.003 0 0 1-.494.689 2.262 2.262 0 0 1-.734.435 2.588 2.588 0 0 1-.904.156c-.156 0-.316-.02-.481-.058a2.388 2.388 0 0 1-.468-.163 1.524 1.524 0 0 0-.286.319.768.768 0 0 0-.117.435c0 .2.078.364.234.494.156.13.45.195.884.195h1.222c.737 0 1.29.12 1.657.357.369.239.553.622.553 1.151 0 .295-.074.574-.221.838-.147.265-.36.497-.637.696a3.34 3.34 0 0 1-1.007.475 4.681 4.681 0 0 1-1.333.175zm0-5.629a1.28 1.28 0 0 0 .943-.403 1.35 1.35 0 0 0 .292-.475c.07-.186.104-.396.104-.63 0-.468-.13-.83-.39-1.085a1.303 1.303 0 0 0-.949-.384c-.373 0-.689.128-.949.383-.26.256-.39.618-.39 1.086 0 .234.035.444.104.63a1.323 1.323 0 0 0 .721.774c.16.07.332.104.514.104zm.156 4.888c.303 0 .578-.037.826-.11.247-.074.457-.17.63-.287a1.34 1.34 0 0 0 .403-.409.911.911 0 0 0 .143-.481c0-.295-.108-.498-.325-.611-.217-.113-.533-.169-.949-.169h-1.092c-.121 0-.253-.007-.396-.02a2.028 2.028 0 0 1-.423-.084c-.225.165-.39.338-.494.52a1.092 1.092 0 0 0-.156.546c0 .338.162.607.488.806.325.2.773.299 1.345.299zm4.264-2.171v-6.318h.884l.091.91h.039c.303-.303.622-.557.956-.76a2.188 2.188 0 0 1 1.163-.306c.667 0 1.155.208 1.463.624.307.416.461 1.031.461 1.846V200h-1.066v-3.861c0-.598-.095-1.03-.286-1.294-.19-.264-.494-.396-.91-.396-.33 0-.62.082-.871.247a5.65 5.65 0 0 0-.858.728V200h-1.066zm9.672.156c-.425 0-.821-.076-1.19-.227a2.82 2.82 0 0 1-.961-.65 3.01 3.01 0 0 1-.644-1.034 3.869 3.869 0 0 1-.234-1.391c0-.52.08-.986.24-1.398.16-.411.373-.76.638-1.046.264-.286.565-.505.903-.656a2.545 2.545 0 0 1 1.053-.228c.399 0 .756.07 1.073.208.316.139.58.338.793.598.212.26.374.572.487.936.113.364.169.771.169 1.222 0 .113-.002.223-.006.331a1.601 1.601 0 0 1-.033.28h-4.264c.043.676.253 1.211.63 1.606.378.394.87.591 1.476.591.303 0 .583-.046.839-.137.255-.09.5-.21.734-.357l.377.702a5.382 5.382 0 0 1-.923.455c-.338.13-.724.195-1.157.195zm-1.989-3.822h3.38c0-.641-.136-1.129-.41-1.463-.273-.333-.656-.5-1.15-.5-.225 0-.44.043-.643.13a1.694 1.694 0 0 0-.553.383 2.102 2.102 0 0 0-.41.618c-.108.243-.18.52-.214.832zm8.034 3.822c-.797 0-1.432-.286-1.904-.858-.473-.572-.709-1.387-.709-2.444 0-.511.076-.973.228-1.385.151-.411.353-.76.604-1.046.251-.286.542-.507.871-.663a2.4 2.4 0 0 1 1.04-.234c.364 0 .68.065.949.195.269.13.542.308.819.533l-.052-1.079v-2.431h1.079V200h-.884l-.091-.741h-.039c-.251.243-.54.453-.864.63a2.148 2.148 0 0 1-1.047.267zm.234-.897a1.7 1.7 0 0 0 .832-.214c.26-.144.52-.362.78-.657v-3.302a2.685 2.685 0 0 0-.773-.514c-.248-.1-.501-.149-.761-.149-.251 0-.487.058-.708.175a1.788 1.788 0 0 0-.579.494 2.468 2.468 0 0 0-.39.761 3.2 3.2 0 0 0-.143.988c0 .763.152 1.356.455 1.781.303.425.732.637 1.287.637zm10.218.897c-.295 0-.6-.071-.916-.215a3.427 3.427 0 0 1-.891-.591h-.039l-.091.65h-.858v-9.256h1.066v2.522l-.026 1.144a4.38 4.38 0 0 1 .936-.63 2.3 2.3 0 0 1 1.04-.254c.407 0 .767.076 1.079.227.312.152.574.369.787.65.212.282.372.62.48 1.014.109.395.163.835.163 1.32 0 .537-.074 1.018-.221 1.443a3.318 3.318 0 0 1-.598 1.079 2.53 2.53 0 0 1-.871.67c-.33.151-.676.227-1.04.227zm-.182-.897c.26 0 .5-.058.722-.175.22-.118.411-.282.572-.495.16-.212.286-.474.377-.786.09-.312.136-.663.136-1.053 0-.347-.03-.663-.091-.949a2.12 2.12 0 0 0-.292-.734 1.401 1.401 0 0 0-.52-.475 1.602 1.602 0 0 0-.761-.169c-.511 0-1.075.286-1.69.858v3.315c.277.243.552.414.826.513.273.1.513.15.721.15zm4.68 3.458a2.3 2.3 0 0 1-.403-.032 1.614 1.614 0 0 1-.338-.098l.208-.845.234.059c.087.021.169.032.247.032.364 0 .66-.128.89-.383.23-.256.41-.579.54-.969l.143-.468-2.535-6.331h1.105l1.287 3.497c.095.277.197.57.305.877.109.308.21.61.306.904h.052c.095-.286.186-.585.273-.897.087-.312.173-.607.26-.884l1.131-3.497h1.04l-2.379 6.838a7.314 7.314 0 0 1-.377.871c-.139.269-.303.5-.494.696-.19.195-.407.348-.65.461a1.987 1.987 0 0 1-.845.169zm-110.643 16.948v-8.983h.884l.091.728h.039c.286-.243.6-.45.943-.624.342-.173.7-.26 1.072-.26.407 0 .767.076 1.079.227.312.152.572.369.78.65.208.282.366.62.475 1.014.108.395.162.839.162 1.333a4.33 4.33 0 0 1-.221 1.436 3.33 3.33 0 0 1-.598 1.073 2.53 2.53 0 0 1-.871.67c-.33.151-.676.227-1.04.227a2.13 2.13 0 0 1-.877-.195 4.443 4.443 0 0 1-.878-.533l.026 1.105v2.132h-1.066zm2.613-3.406c.26 0 .5-.058.722-.175.22-.118.411-.282.572-.495.16-.212.285-.474.377-.786.09-.312.136-.663.136-1.053 0-.347-.03-.663-.091-.949a2.12 2.12 0 0 0-.292-.734 1.401 1.401 0 0 0-.52-.475 1.7 1.7 0 0 0-1.573.052c-.274.147-.566.36-.878.637v3.315c.286.243.563.414.832.513.269.1.507.15.715.15zm6.058.897c-.529 0-.968-.156-1.32-.468-.35-.312-.526-.754-.526-1.326 0-.693.308-1.224.923-1.593.615-.368 1.599-.626 2.951-.773 0-.2-.02-.394-.058-.585a1.463 1.463 0 0 0-.202-.507 1.059 1.059 0 0 0-.396-.357c-.17-.091-.384-.137-.644-.137-.364 0-.706.07-1.027.208a5.01 5.01 0 0 0-.858.468l-.416-.741c.295-.19.654-.375 1.079-.553a3.603 3.603 0 0 1 1.404-.266c.771 0 1.33.236 1.677.708.347.473.52 1.103.52 1.892V217h-.884l-.091-.754h-.039a5.346 5.346 0 0 1-.975.643c-.347.178-.72.267-1.118.267zm.312-.858a1.8 1.8 0 0 0 .858-.215 4.3 4.3 0 0 0 .858-.63v-1.755c-.529.07-.973.152-1.332.247-.36.095-.65.208-.871.338a1.31 1.31 0 0 0-.481.449c-.1.169-.15.353-.15.552 0 .364.108.624.325.78.217.156.481.234.793.234zm6.773.858c-.338 0-.622-.052-.851-.156a1.464 1.464 0 0 1-.56-.429 1.672 1.672 0 0 1-.305-.663 3.777 3.777 0 0 1-.091-.858v-3.497h-.936v-.806l.988-.065.13-1.768h.897v1.768h1.703v.871h-1.703v3.51c0 .39.071.691.215.904.143.212.396.318.76.318.113 0 .234-.017.364-.052.13-.035.247-.074.351-.117l.208.806c-.173.06-.362.115-.565.162a2.646 2.646 0 0 1-.605.072zm2.405-.156v-6.318h1.066V217h-1.066zm.546-7.618a.754.754 0 0 1-.526-.195.639.639 0 0 1-.215-.494c0-.208.071-.375.215-.5a.77.77 0 0 1 .526-.189.77.77 0 0 1 .527.189.633.633 0 0 1 .214.5c0 .2-.071.364-.214.494a.754.754 0 0 1-.527.195zm5.213 7.774c-.425 0-.821-.076-1.19-.227a2.82 2.82 0 0 1-.961-.65 3.01 3.01 0 0 1-.644-1.034 3.869 3.869 0 0 1-.234-1.391c0-.52.08-.986.24-1.398.16-.411.373-.76.638-1.046.264-.286.565-.505.903-.656a2.545 2.545 0 0 1 1.053-.228c.399 0 .756.07 1.073.208.316.139.58.338.793.598.212.26.374.572.487.936.113.364.169.771.169 1.222 0 .113-.002.223-.006.331a1.601 1.601 0 0 1-.033.28h-4.264c.043.676.253 1.211.63 1.606.378.394.87.591 1.476.591.303 0 .583-.046.839-.137.255-.09.5-.21.734-.357l.377.702a5.382 5.382 0 0 1-.923.455c-.338.13-.724.195-1.157.195zm-1.989-3.822h3.38c0-.641-.136-1.129-.41-1.463-.273-.333-.656-.5-1.15-.5-.225 0-.44.043-.643.13a1.694 1.694 0 0 0-.553.383 2.102 2.102 0 0 0-.41.618c-.108.243-.18.52-.214.832zm5.876 3.666v-6.318h.884l.091.91h.039c.303-.303.622-.557.956-.76a2.188 2.188 0 0 1 1.163-.306c.667 0 1.155.208 1.463.624.307.416.461 1.031.461 1.846V217h-1.066v-3.861c0-.598-.095-1.03-.286-1.294-.19-.264-.494-.396-.91-.396-.33 0-.62.082-.871.247a5.65 5.65 0 0 0-.858.728V217h-1.066zm9.1.156c-.338 0-.622-.052-.851-.156a1.464 1.464 0 0 1-.56-.429 1.672 1.672 0 0 1-.305-.663 3.777 3.777 0 0 1-.091-.858v-3.497h-.936v-.806l.988-.065.13-1.768h.897v1.768h1.703v.871h-1.703v3.51c0 .39.071.691.215.904.143.212.396.318.76.318.113 0 .234-.017.364-.052.13-.035.247-.074.351-.117l.208.806c-.173.06-.362.115-.565.162a2.646 2.646 0 0 1-.605.072zm5.005-.156v-6.318h1.066V217h-1.066zm.546-7.618a.754.754 0 0 1-.526-.195.639.639 0 0 1-.215-.494c0-.208.071-.375.215-.5a.77.77 0 0 1 .526-.189.77.77 0 0 1 .527.189.633.633 0 0 1 .214.5c0 .2-.071.364-.214.494a.754.754 0 0 1-.527.195zm2.652 7.618v-6.318h.884l.091.91h.039c.303-.303.622-.557.956-.76a2.188 2.188 0 0 1 1.163-.306c.667 0 1.155.208 1.463.624.307.416.461 1.031.461 1.846V217h-1.066v-3.861c0-.598-.095-1.03-.286-1.294-.19-.264-.494-.396-.91-.396-.33 0-.62.082-.871.247a5.65 5.65 0 0 0-.858.728V217h-1.066zm9.646 0v-8.476h2.912c.468 0 .906.046 1.313.137.407.09.763.242 1.066.454.303.213.544.494.722.845.177.352.266.783.266 1.294 0 .494-.089.923-.266 1.287a2.495 2.495 0 0 1-.722.897 3.072 3.072 0 0 1-1.053.52 4.665 4.665 0 0 1-1.274.169h-1.053V217h-1.911zm1.911-4.394h.936c1.04 0 1.56-.45 1.56-1.352 0-.442-.139-.754-.416-.936-.277-.182-.676-.273-1.196-.273h-.884v2.561zm5.681 4.394v-6.448h1.56l.13 1.131h.052c.234-.442.516-.767.845-.975.33-.208.659-.312.988-.312.182 0 .331.01.449.033.117.021.223.054.318.097l-.312 1.651a2.24 2.24 0 0 0-.702-.104c-.243 0-.496.087-.76.26-.265.173-.484.481-.657.923V217h-1.911zm7.943.156c-.407 0-.802-.076-1.183-.227a3.002 3.002 0 0 1-1.703-1.716 3.74 3.74 0 0 1-.26-1.437c0-.537.087-1.016.26-1.437.173-.42.405-.773.696-1.059.29-.286.626-.505 1.007-.656a3.173 3.173 0 0 1 2.36 0 3.018 3.018 0 0 1 1.696 1.715c.173.42.26.9.26 1.437a3.74 3.74 0 0 1-.26 1.436c-.173.42-.405.774-.695 1.06-.29.286-.624.505-1.001.657-.378.151-.77.227-1.177.227zm0-1.547a.97.97 0 0 0 .884-.494c.2-.33.299-.776.299-1.339s-.1-1.01-.299-1.339a.97.97 0 0 0-.884-.494c-.399 0-.695.165-.89.494-.196.33-.293.776-.293 1.339s.097 1.01.293 1.339c.195.33.491.494.89.494zm4.446 1.391v-6.448h1.56l.13.819h.052a5.2 5.2 0 0 1 .91-.683c.33-.195.715-.292 1.157-.292.702 0 1.211.23 1.528.689.316.46.474 1.096.474 1.911V217h-1.911v-3.757c0-.468-.063-.789-.188-.962-.126-.173-.328-.26-.605-.26-.243 0-.45.054-.624.163a3.653 3.653 0 0 0-.572.461V217h-1.911zm9.919.156c-.399 0-.739-.06-1.02-.182a1.787 1.787 0 0 1-.69-.507 2.063 2.063 0 0 1-.39-.787 3.944 3.944 0 0 1-.123-1.02v-2.613h-.884v-1.417l.988-.078.221-1.716h1.586v1.716h1.547v1.495h-1.547v2.587c0 .364.076.626.228.787.151.16.353.24.604.24.104 0 .21-.013.319-.039.108-.026.205-.056.292-.091l.299 1.391a8.792 8.792 0 0 1-.611.156 3.808 3.808 0 0 1-.819.078zm5.265 0c-.407 0-.802-.076-1.183-.227a3.002 3.002 0 0 1-1.703-1.716 3.74 3.74 0 0 1-.26-1.437c0-.537.087-1.016.26-1.437.173-.42.405-.773.696-1.059.29-.286.626-.505 1.007-.656a3.173 3.173 0 0 1 2.36 0 3.018 3.018 0 0 1 1.696 1.715c.173.42.26.9.26 1.437a3.74 3.74 0 0 1-.26 1.436c-.173.42-.405.774-.695 1.06-.29.286-.624.505-1.001.657-.378.151-.77.227-1.177.227zm0-1.547a.97.97 0 0 0 .884-.494c.2-.33.299-.776.299-1.339s-.1-1.01-.299-1.339a.97.97 0 0 0-.884-.494c-.399 0-.695.165-.89.494-.196.33-.293.776-.293 1.339s.097 1.01.293 1.339c.195.33.491.494.89.494zM345.455 241l1.703-8.528h2.405c.399 0 .763.039 1.092.117.33.078.611.201.845.37.234.17.416.384.546.644.13.26.195.576.195.949 0 .52-.093.97-.28 1.352a2.568 2.568 0 0 1-.773.942c-.33.248-.721.43-1.177.547a6.024 6.024 0 0 1-1.501.175h-1.365l-.676 3.432h-1.014zm1.859-4.251h1.235c.884 0 1.553-.173 2.009-.52.455-.347.682-.862.682-1.547 0-.494-.165-.851-.494-1.072-.33-.222-.806-.332-1.43-.332h-1.313l-.689 3.471zm7.163 4.407c-.555 0-.997-.195-1.326-.585-.33-.39-.494-.958-.494-1.703 0-.607.095-1.174.286-1.703a4.61 4.61 0 0 1 .767-1.378c.32-.39.685-.698 1.092-.923a2.597 2.597 0 0 1 1.274-.338c.338 0 .64.087.903.26.265.173.47.403.618.689h.052l.247-.793h.806L357.441 241h-.819l.104-.936h-.052c-.303.33-.646.594-1.027.793-.381.2-.771.299-1.17.299zm.364-.832c.33 0 .665-.097 1.007-.293.343-.195.67-.5.982-.916l.572-2.821c-.182-.33-.381-.568-.598-.715a1.205 1.205 0 0 0-.689-.221c-.312 0-.615.093-.91.28a2.83 2.83 0 0 0-.78.747c-.225.312-.405.67-.54 1.073a3.94 3.94 0 0 0-.201 1.254c0 .546.104.951.312 1.216.208.264.49.396.845.396zm6.695.832c-.277 0-.511-.037-.702-.11a1.28 1.28 0 0 1-.468-.3 1.088 1.088 0 0 1-.26-.442 1.87 1.87 0 0 1-.078-.552c0-.13.006-.25.02-.358.013-.108.028-.223.045-.344l.741-3.562h-.923l.143-.741.988-.065.468-1.742h.845l-.351 1.742h1.599l-.156.806h-1.625l-.741 3.614a2.842 2.842 0 0 0-.039.468c0 .26.058.455.176.585.117.13.327.195.63.195a.97.97 0 0 0 .351-.065c.113-.043.217-.087.312-.13l.221.715c-.147.07-.32.134-.52.195-.2.06-.425.091-.676.091zm2.223-.156l1.261-6.318h1.001L364.747 241h-.988zm2.106-7.631a.7.7 0 0 1-.449-.15c-.125-.1-.188-.244-.188-.435a.71.71 0 0 1 .227-.54.744.744 0 0 1 .527-.214c.173 0 .323.052.448.156a.542.542 0 0 1 .189.442.69.69 0 0 1-.228.533.757.757 0 0 1-.526.208zm1.053 5.148a4.29 4.29 0 0 1 1.072-2.892 3.408 3.408 0 0 1 1.08-.813c.403-.19.812-.286 1.228-.286.355 0 .656.058.903.175.248.118.449.278.605.482.156.203.269.446.338.728.07.281.104.582.104.903 0 .251-.026.49-.078.715-.052.225-.1.399-.143.52h-4.108c-.06.407-.056.756.013 1.046.07.29.184.531.344.722.16.19.358.33.592.416.234.087.49.13.767.13.251 0 .5-.054.747-.162.248-.109.47-.237.67-.384l.39.663c-.251.182-.55.34-.897.475a3.14 3.14 0 0 1-1.144.201c-.754 0-1.356-.227-1.807-.683-.45-.455-.676-1.107-.676-1.956zm1.105-1.144h3.315c.017-.104.032-.208.045-.312.014-.104.02-.217.02-.338 0-.182-.022-.357-.065-.527a1.293 1.293 0 0 0-.208-.448 1.028 1.028 0 0 0-.377-.312 1.27 1.27 0 0 0-.572-.117c-.234 0-.461.048-.683.143a2.096 2.096 0 0 0-.617.416 3.12 3.12 0 0 0-.858 1.495zm5.07 3.627l1.248-6.318h.819l-.091.949h.052a7.881 7.881 0 0 1 1.079-.786 2.17 2.17 0 0 1 1.131-.319c.537 0 .92.139 1.15.416.23.277.345.663.345 1.157a3.242 3.242 0 0 1-.104.871l-.806 4.03h-.988l.78-3.9c.035-.173.06-.312.078-.416.017-.104.026-.212.026-.325 0-.32-.074-.563-.221-.728-.147-.165-.386-.247-.715-.247-.251 0-.53.091-.838.273-.308.182-.661.472-1.06.871l-.897 4.472h-.988zm8.827.156c-.277 0-.511-.037-.702-.11a1.28 1.28 0 0 1-.468-.3 1.088 1.088 0 0 1-.26-.442 1.87 1.87 0 0 1-.078-.552c0-.13.006-.25.02-.358.013-.108.028-.223.045-.344l.741-3.562h-.923l.143-.741.988-.065.468-1.742h.845l-.351 1.742h1.599l-.156.806h-1.625l-.741 3.614a2.842 2.842 0 0 0-.039.468c0 .26.058.455.175.585.118.13.328.195.631.195a.97.97 0 0 0 .351-.065c.113-.043.217-.087.312-.13l.221.715c-.147.07-.32.134-.52.195-.2.06-.425.091-.676.091zm4.719-.156l1.261-6.318h1.001L387.627 241h-.988zm2.106-7.631a.7.7 0 0 1-.449-.15c-.125-.1-.188-.244-.188-.435a.71.71 0 0 1 .227-.54.744.744 0 0 1 .527-.214c.173 0 .323.052.448.156a.542.542 0 0 1 .189.442.69.69 0 0 1-.228.533.757.757 0 0 1-.526.208zm2.691 7.787c-.208 0-.418-.03-.63-.091a2.888 2.888 0 0 1-1.145-.637 2.323 2.323 0 0 1-.396-.468l.624-.494c.2.277.438.5.715.67a1.716 1.716 0 0 0 1.423.168 1.56 1.56 0 0 0 .43-.227c.125-.095.223-.206.292-.332a.834.834 0 0 0 .104-.409.816.816 0 0 0-.059-.312.909.909 0 0 0-.188-.28 1.867 1.867 0 0 0-.358-.279 12.904 12.904 0 0 0-.552-.325c-.494-.269-.858-.533-1.092-.793a1.35 1.35 0 0 1-.351-.936c0-.277.058-.533.175-.767.118-.234.273-.433.468-.598a2.13 2.13 0 0 1 .69-.383c.264-.092.543-.137.838-.137.39 0 .739.078 1.047.234.307.156.578.36.812.611l-.572.559a2.806 2.806 0 0 0-.572-.442 1.445 1.445 0 0 0-.741-.182 1.27 1.27 0 0 0-.852.292c-.23.196-.344.427-.344.696 0 .13.03.247.091.351.06.104.143.2.247.286.104.087.223.169.358.247.134.078.275.156.422.234.286.156.522.305.709.448.186.144.337.286.455.43.117.143.199.288.247.435.047.147.071.308.071.481 0 .295-.058.563-.175.806a1.753 1.753 0 0 1-.494.618 2.303 2.303 0 0 1-.754.39c-.29.09-.605.136-.943.136zm6.006-.156l1.248-6.318h.819l-.143 1.209h.052c.251-.39.544-.715.877-.975a1.73 1.73 0 0 1 1.086-.39c.217 0 .416.039.598.117l-.351.884a1.226 1.226 0 0 0-.546-.104c-.312 0-.633.134-.962.403-.33.269-.628.663-.897 1.183L398.43 241h-.988zm4.524-2.483a4.29 4.29 0 0 1 1.072-2.892 3.408 3.408 0 0 1 1.08-.813c.403-.19.812-.286 1.228-.286.355 0 .656.058.903.175.248.118.449.278.605.482.156.203.269.446.338.728.07.281.104.582.104.903 0 .251-.026.49-.078.715-.052.225-.1.399-.143.52h-4.108c-.06.407-.056.756.013 1.046.07.29.184.531.344.722.16.19.358.33.592.416.234.087.49.13.767.13.251 0 .5-.054.747-.162.248-.109.47-.237.67-.384l.39.663c-.251.182-.55.34-.897.475a3.14 3.14 0 0 1-1.144.201c-.754 0-1.356-.227-1.807-.683-.45-.455-.676-1.107-.676-1.956zm1.105-1.144h3.315c.017-.104.032-.208.045-.312.014-.104.02-.217.02-.338 0-.182-.022-.357-.065-.527a1.293 1.293 0 0 0-.208-.448 1.028 1.028 0 0 0-.377-.312 1.27 1.27 0 0 0-.572-.117c-.234 0-.461.048-.683.143a2.096 2.096 0 0 0-.617.416 3.12 3.12 0 0 0-.858 1.495zm7.072 3.783c-.277 0-.511-.037-.702-.11a1.28 1.28 0 0 1-.468-.3 1.088 1.088 0 0 1-.26-.442 1.87 1.87 0 0 1-.078-.552c0-.13.006-.25.02-.358.013-.108.028-.223.045-.344l.741-3.562h-.923l.143-.741.988-.065.468-1.742h.845l-.351 1.742h1.599l-.156.806h-1.625l-.741 3.614a2.842 2.842 0 0 0-.039.468c0 .26.058.455.175.585.118.13.328.195.631.195a.97.97 0 0 0 .351-.065c.113-.043.217-.087.312-.13l.221.715c-.147.07-.32.134-.52.195-.2.06-.425.091-.676.091zm8.255-6.474L417.137 241h-.819l.104-.962h-.052c-.347.303-.7.565-1.06.786-.36.222-.734.332-1.124.332-.537 0-.92-.14-1.15-.423-.23-.281-.345-.665-.345-1.15a3.242 3.242 0 0 1 .104-.871l.806-4.03h1.001l-.793 3.9c-.035.173-.06.312-.078.416a1.975 1.975 0 0 0-.026.325c0 .32.074.563.221.728.147.165.386.247.715.247.251 0 .529-.091.832-.273.303-.182.65-.472 1.04-.871l.897-4.472h.988zm.832 6.318l1.248-6.318h.819l-.143 1.209h.052c.251-.39.544-.715.877-.975a1.73 1.73 0 0 1 1.086-.39c.217 0 .416.039.598.117l-.351.884a1.226 1.226 0 0 0-.546-.104c-.312 0-.633.134-.962.403-.33.269-.628.663-.897 1.183l-.793 3.991h-.988zm4.446 0l1.248-6.318h.819l-.091.949h.052a7.881 7.881 0 0 1 1.079-.786 2.17 2.17 0 0 1 1.131-.319c.537 0 .92.139 1.15.416.23.277.345.663.345 1.157a3.242 3.242 0 0 1-.104.871l-.806 4.03h-.988l.78-3.9c.035-.173.06-.312.078-.416.017-.104.026-.212.026-.325 0-.32-.074-.563-.221-.728-.147-.165-.386-.247-.715-.247-.251 0-.53.091-.838.273-.308.182-.661.472-1.06.871l-.897 4.472h-.988zm6.903-2.483a4.29 4.29 0 0 1 1.072-2.892 3.408 3.408 0 0 1 1.08-.813c.403-.19.812-.286 1.228-.286.355 0 .656.058.903.175.248.118.449.278.605.482.156.203.269.446.338.728.07.281.104.582.104.903 0 .251-.026.49-.078.715-.052.225-.1.399-.143.52h-4.108c-.06.407-.056.756.013 1.046.07.29.184.531.344.722.16.19.358.33.592.416.234.087.49.13.767.13.251 0 .5-.054.747-.162.248-.109.47-.237.67-.384l.39.663c-.251.182-.55.34-.897.475a3.14 3.14 0 0 1-1.144.201c-.754 0-1.356-.227-1.807-.683-.45-.455-.676-1.107-.676-1.956zm1.105-1.144h3.315c.017-.104.032-.208.045-.312.014-.104.02-.217.02-.338 0-.182-.022-.357-.065-.527a1.293 1.293 0 0 0-.208-.448 1.028 1.028 0 0 0-.377-.312 1.27 1.27 0 0 0-.572-.117c-.234 0-.461.048-.683.143a2.096 2.096 0 0 0-.617.416 3.12 3.12 0 0 0-.858 1.495zm10.127-1.924l.208-1.235.494-2.47h1.001L441.642 241h-.819l.104-.936h-.052c-.303.33-.646.594-1.027.793-.381.2-.771.299-1.17.299-.555 0-.997-.195-1.326-.585-.33-.39-.494-.958-.494-1.703 0-.607.095-1.174.286-1.703a4.61 4.61 0 0 1 .767-1.378c.32-.39.685-.698 1.092-.923a2.597 2.597 0 0 1 1.274-.338c.338 0 .633.084.884.254.251.169.455.392.611.669h.039zm-2.769 4.875c.33 0 .663-.097 1.001-.293.338-.195.667-.5.988-.916l.572-2.821c-.182-.33-.381-.568-.598-.715a1.205 1.205 0 0 0-.689-.221c-.312 0-.615.093-.91.28a2.83 2.83 0 0 0-.78.747c-.225.312-.405.67-.54 1.073a3.94 3.94 0 0 0-.201 1.254c0 .546.104.951.312 1.216.208.264.49.396.845.396zm9.165.832c-.277 0-.511-.037-.702-.11a1.28 1.28 0 0 1-.468-.3 1.088 1.088 0 0 1-.26-.442 1.87 1.87 0 0 1-.078-.552c0-.13.007-.25.02-.358.013-.108.028-.223.045-.344l.741-3.562h-.923l.143-.741.988-.065.468-1.742h.845l-.351 1.742h1.599l-.156.806h-1.625l-.741 3.614a2.842 2.842 0 0 0-.039.468c0 .26.058.455.176.585.117.13.327.195.63.195a.97.97 0 0 0 .351-.065c.113-.043.217-.087.312-.13l.221.715c-.147.07-.32.134-.52.195-.2.06-.425.091-.676.091zm4.576 0c-.685 0-1.23-.225-1.638-.676-.407-.45-.611-1.07-.611-1.859 0-.598.095-1.148.286-1.651.19-.503.446-.934.767-1.293.32-.36.685-.642 1.092-.845a2.788 2.788 0 0 1 1.261-.306c.685 0 1.233.225 1.644.676.412.45.618 1.07.618 1.859 0 .598-.097 1.148-.293 1.651a4.28 4.28 0 0 1-.767 1.294 3.53 3.53 0 0 1-1.092.845 2.828 2.828 0 0 1-1.267.305zm.104-.832c.295 0 .578-.084.852-.254.273-.169.517-.396.734-.682.217-.286.39-.624.52-1.014s.195-.806.195-1.248c0-.572-.115-1.012-.345-1.32-.23-.307-.565-.461-1.007-.461-.286 0-.568.084-.845.254a2.644 2.644 0 0 0-.741.689c-.217.29-.39.63-.52 1.02s-.195.806-.195 1.248c0 .572.115 1.01.344 1.313.23.303.566.455 1.008.455zm-104.936 12.775l-.754 1.456h2.535l-.13-1.456c-.043-.45-.084-.903-.123-1.358-.04-.456-.076-.93-.111-1.424h-.052c-.225.494-.448.964-.67 1.41a82.74 82.74 0 0 1-.695 1.372zm-3.64 4.901l4.628-8.528h1.17l.988 8.528h-1.053l-.234-2.665h-3.016L345.429 258h-1.118zm10.127.156c-.693 0-1.254-.219-1.683-.656-.43-.438-.644-1.064-.644-1.879 0-.59.097-1.133.293-1.632a4.24 4.24 0 0 1 .78-1.293c.325-.364.7-.65 1.124-.858a2.979 2.979 0 0 1 1.326-.312c.381 0 .702.074.962.221.26.147.485.33.676.546l-.585.624c-.165-.2-.33-.345-.494-.435a1.28 1.28 0 0 0-.624-.137c-.312 0-.615.087-.91.26a2.834 2.834 0 0 0-.786.696c-.23.29-.412.63-.546 1.02-.135.39-.202.802-.202 1.235 0 .572.123 1.01.37 1.313.248.303.622.455 1.125.455.277 0 .53-.056.76-.169.23-.113.445-.243.644-.39l.442.65c-.225.173-.503.34-.832.5-.33.16-.728.241-1.196.241zm5.655 0c-.693 0-1.254-.219-1.684-.656-.429-.438-.643-1.064-.643-1.879 0-.59.097-1.133.293-1.632a4.24 4.24 0 0 1 .78-1.293c.325-.364.7-.65 1.124-.858a2.979 2.979 0 0 1 1.326-.312c.381 0 .702.074.962.221.26.147.485.33.676.546l-.585.624c-.165-.2-.33-.345-.494-.435a1.28 1.28 0 0 0-.624-.137c-.312 0-.615.087-.91.26a2.834 2.834 0 0 0-.787.696c-.23.29-.411.63-.545 1.02-.135.39-.202.802-.202 1.235 0 .572.123 1.01.37 1.313.248.303.622.455 1.125.455.277 0 .53-.056.76-.169.23-.113.445-.243.644-.39l.442.65c-.225.173-.503.34-.832.5-.33.16-.728.241-1.196.241zm3.328-2.639a4.29 4.29 0 0 1 1.072-2.892 3.408 3.408 0 0 1 1.08-.813c.403-.19.812-.286 1.228-.286.355 0 .656.058.904.175.247.118.448.278.604.482.156.203.269.446.338.728.07.281.104.582.104.903 0 .251-.026.49-.078.715-.052.225-.1.399-.143.52h-4.108c-.06.407-.056.756.013 1.046.07.29.184.531.345.722.16.19.357.33.591.416.234.087.49.13.767.13.251 0 .5-.054.747-.162.248-.109.47-.237.67-.384l.39.663c-.251.182-.55.34-.897.475a3.14 3.14 0 0 1-1.144.201c-.754 0-1.356-.227-1.807-.682-.45-.456-.676-1.108-.676-1.957zm1.105-1.144h3.315c.017-.104.032-.208.046-.312.013-.104.019-.217.019-.338 0-.182-.022-.357-.065-.527a1.293 1.293 0 0 0-.208-.448 1.028 1.028 0 0 0-.377-.312 1.27 1.27 0 0 0-.572-.117c-.234 0-.461.048-.683.143a2.096 2.096 0 0 0-.617.416 3.12 3.12 0 0 0-.858 1.495zm6.162 2.873l-.234 1.352-.403 2.067h-.988l1.794-8.983h.819l-.078.832h.039c.32-.269.665-.5 1.034-.696a2.427 2.427 0 0 1 1.15-.292c.555 0 .997.197 1.326.591.33.395.494.96.494 1.697 0 .607-.095 1.174-.286 1.703-.19.529-.444.988-.76 1.378-.317.39-.68.698-1.092.923a2.61 2.61 0 0 1-1.268.338c-.33 0-.624-.084-.884-.254a2.05 2.05 0 0 1-.637-.656h-.026zm2.769-4.888c-.295 0-.617.091-.969.273a3.58 3.58 0 0 0-.981.767l-.598 3.016c.173.33.368.563.585.702.217.139.45.208.702.208.312 0 .615-.093.91-.28a2.75 2.75 0 0 0 .773-.747c.222-.312.4-.67.533-1.073.135-.403.202-.825.202-1.267 0-.537-.102-.938-.305-1.203-.204-.264-.488-.396-.852-.396zm4.849 5.642l1.521-7.657h-2.47l.169-.871h5.967l-.169.871h-2.483L379.32 258h-1.014zm3.9 0l2.834-3.354-1.183-2.964h1.014l.546 1.404c.07.19.132.37.189.54.056.169.119.344.188.526h.052c.13-.173.264-.349.403-.526.139-.178.273-.358.403-.54l1.105-1.404h1.079l-2.6 3.185 1.287 3.133h-1.027l-.572-1.482c-.07-.19-.14-.383-.214-.578a13.055 13.055 0 0 0-.241-.592h-.052c-.139.2-.282.392-.429.579-.147.186-.303.379-.468.578L383.298 258h-1.092zm9.1 0l1.703-8.528h2.405c.399 0 .763.039 1.092.117.33.078.611.201.845.37.234.17.416.384.546.644.13.26.195.576.195.949 0 .52-.093.97-.28 1.352a2.568 2.568 0 0 1-.773.942c-.33.248-.721.43-1.177.547a6.024 6.024 0 0 1-1.501.175h-1.365L392.32 258h-1.014zm1.859-4.251h1.235c.884 0 1.553-.173 2.009-.52.455-.347.682-.862.682-1.547 0-.494-.165-.851-.494-1.072-.33-.222-.806-.332-1.43-.332h-1.313l-.689 3.471zm5.239 4.251l1.248-6.318h.819l-.143 1.209h.052c.251-.39.544-.715.878-.975a1.73 1.73 0 0 1 1.085-.39c.217 0 .416.039.598.117l-.351.884a1.226 1.226 0 0 0-.546-.104c-.312 0-.633.134-.962.403-.33.269-.628.663-.897 1.183l-.793 3.991h-.988zm6.799.156c-.685 0-1.23-.225-1.638-.676-.407-.45-.611-1.07-.611-1.859 0-.598.095-1.148.286-1.651.19-.503.446-.934.767-1.293.32-.36.685-.642 1.092-.845a2.788 2.788 0 0 1 1.261-.306c.685 0 1.233.225 1.644.676.412.45.618 1.07.618 1.859 0 .598-.097 1.148-.293 1.651a4.28 4.28 0 0 1-.767 1.294 3.53 3.53 0 0 1-1.092.845 2.828 2.828 0 0 1-1.267.305zm.104-.832c.295 0 .578-.084.851-.254.274-.169.518-.396.735-.682.217-.286.39-.624.52-1.014s.195-.806.195-1.248c0-.572-.115-1.012-.345-1.32-.23-.307-.565-.461-1.007-.461-.286 0-.568.084-.845.254a2.644 2.644 0 0 0-.741.689c-.217.29-.39.63-.52 1.02s-.195.806-.195 1.248c0 .572.115 1.01.345 1.313.23.303.565.455 1.007.455z" fill="#1A2F28"/><g><g transform="translate(15 15)"><use fill="#000" filter="url(#c)" xlink:href="#d"/><use fill="#F9FBFB" xlink:href="#d"/></g><path d="M32.87 82l-3.467-11.118h2.09l1.565 5.593c.18.635.342 1.235.484 1.802.142.567.309 1.173.502 1.819h.068c.192-.646.36-1.252.501-1.819.142-.567.297-1.167.468-1.802l1.546-5.593h2.023L35.2 82h-2.33zm6.954 0v-8.347h1.954V82h-1.955zm.985-9.809c-.35 0-.64-.102-.866-.306a1.024 1.024 0 0 1-.34-.799c0-.329.113-.598.34-.808.226-.21.515-.314.866-.314.352 0 .64.105.868.314.226.21.34.48.34.808 0 .329-.114.595-.34.799-.227.204-.516.306-.867.306zm7.038 10.013a4.33 4.33 0 0 1-1.614-.297 3.835 3.835 0 0 1-1.31-.859 3.916 3.916 0 0 1-.875-1.368c-.21-.539-.314-1.154-.314-1.845 0-.68.107-1.292.323-1.836a4.212 4.212 0 0 1 .858-1.377 3.804 3.804 0 0 1 1.233-.867 3.52 3.52 0 0 1 1.428-.306c.566 0 1.065.096 1.496.289.43.193.79.465 1.079.816.289.351.507.77.655 1.258.147.487.22 1.02.22 1.598 0 .193-.008.374-.025.544-.017.17-.037.306-.06.408h-5.303c.09.748.354 1.323.79 1.726.436.402.994.603 1.675.603.362 0 .7-.054 1.011-.162.312-.107.62-.257.927-.45l.663 1.224c-.397.26-.84.476-1.326.646-.488.17-.998.255-1.53.255zm-2.227-5.168h3.707c0-.646-.14-1.153-.417-1.522-.278-.368-.705-.552-1.283-.552-.5 0-.935.176-1.31.527-.374.351-.606.867-.697 1.547zM54.275 82l-2.21-8.347h1.971l1.004 4.335c.09.397.167.793.229 1.19.062.397.133.799.212 1.207h.069c.079-.408.161-.81.246-1.207.085-.397.178-.793.28-1.19l1.088-4.335h1.786l1.105 4.335c.102.397.198.793.288 1.19.091.397.182.799.273 1.207h.067c.08-.408.153-.81.221-1.207.069-.397.142-.793.221-1.19l1.003-4.335h1.837L61.839 82h-2.33l-.968-3.893c-.091-.397-.176-.79-.255-1.181l-.255-1.25h-.069c-.079.442-.158.861-.238 1.258-.079.397-.164.793-.255 1.19L56.517 82h-2.244zm17.152 0v-9.452h-3.212v-1.666h8.398v1.666h-3.213V82h-1.972zm6.869 0v-8.347h1.614l.136 1.479h.069c.294-.544.651-.96 1.07-1.25.42-.289.85-.433 1.293-.433.396 0 .713.057.951.17l-.34 1.7a3.57 3.57 0 0 0-.407-.102 2.62 2.62 0 0 0-.46-.034c-.328 0-.674.127-1.037.382-.362.256-.674.7-.934 1.335V82h-1.956zm9.91.204a4.33 4.33 0 0 1-1.614-.297 3.835 3.835 0 0 1-1.31-.859 3.916 3.916 0 0 1-.875-1.368c-.21-.539-.315-1.154-.315-1.845 0-.68.108-1.292.324-1.836a4.212 4.212 0 0 1 .858-1.377 3.804 3.804 0 0 1 1.233-.867 3.52 3.52 0 0 1 1.427-.306c.567 0 1.066.096 1.496.289.431.193.791.465 1.08.816.289.351.507.77.654 1.258.148.487.222 1.02.222 1.598 0 .193-.009.374-.026.544-.017.17-.037.306-.06.408h-5.303c.09.748.354 1.323.79 1.726.436.402.994.603 1.674.603.363 0 .7-.054 1.012-.162.312-.107.62-.257.927-.45l.662 1.224c-.396.26-.838.476-1.326.646-.487.17-.997.255-1.53.255zm-2.227-5.168h3.707c0-.646-.14-1.153-.417-1.522-.278-.368-.705-.552-1.284-.552-.498 0-.934.176-1.308.527-.375.351-.607.867-.698 1.547zm9.3 5.168c-.737 0-1.332-.224-1.785-.671-.454-.448-.68-1.04-.68-1.777 0-.442.093-.836.28-1.181.187-.346.482-.644.884-.893.402-.25.912-.459 1.53-.629.618-.17 1.357-.3 2.218-.391a3.15 3.15 0 0 0-.093-.62 1.426 1.426 0 0 0-.255-.527 1.186 1.186 0 0 0-.468-.357 1.769 1.769 0 0 0-.714-.128c-.408 0-.807.08-1.198.238a8.06 8.06 0 0 0-1.147.578l-.715-1.309c.465-.295.986-.55 1.564-.765a5.314 5.314 0 0 1 1.87-.323c1.043 0 1.822.309 2.338.927.516.617.773 1.51.773 2.677V82h-1.615l-.135-.918h-.069a6.133 6.133 0 0 1-1.198.799 3.021 3.021 0 0 1-1.385.323zm.628-1.53c.34 0 .65-.08.927-.238.278-.159.575-.385.892-.68v-1.87a8.924 8.924 0 0 0-1.427.272c-.386.113-.697.24-.936.382-.238.142-.407.304-.51.485a1.16 1.16 0 0 0-.153.578c0 .374.114.646.34.816.227.17.516.255.867.255zm9.061 1.53c-.487 0-.898-.074-1.232-.221a2.09 2.09 0 0 1-.816-.62 2.569 2.569 0 0 1-.459-.953 4.872 4.872 0 0 1-.144-1.232V75.2h-1.19v-1.462l1.291-.085.239-2.278h1.631v2.278h2.125V75.2h-2.125v3.978c0 .975.391 1.462 1.173 1.462.148 0 .298-.017.451-.051.153-.034.292-.08.416-.136l.34 1.445c-.226.08-.484.15-.773.212a4.389 4.389 0 0 1-.927.094zm3.197-.204v-8.347h1.614l.136 1.139h.069a5.857 5.857 0 0 1 1.147-.952c.414-.26.881-.391 1.403-.391.612 0 1.102.13 1.47.391.368.26.649.629.841 1.105.397-.43.81-.788 1.242-1.071.43-.283.912-.425 1.445-.425.884 0 1.535.286 1.954.858.42.573.63 1.392.63 2.457V82h-1.972v-4.981c0-.691-.105-1.179-.315-1.462-.21-.283-.53-.425-.96-.425-.522 0-1.105.346-1.751 1.037V82h-1.956v-4.981c0-.691-.104-1.179-.314-1.462-.21-.283-.535-.425-.977-.425-.522 0-1.105.346-1.752 1.037V82h-1.954zm17.9.204a4.33 4.33 0 0 1-1.614-.297 3.835 3.835 0 0 1-1.31-.859 3.916 3.916 0 0 1-.875-1.368c-.21-.539-.314-1.154-.314-1.845 0-.68.107-1.292.323-1.836a4.212 4.212 0 0 1 .858-1.377 3.804 3.804 0 0 1 1.233-.867 3.52 3.52 0 0 1 1.428-.306c.566 0 1.065.096 1.495.289.431.193.791.465 1.08.816.289.351.507.77.654 1.258.148.487.221 1.02.221 1.598 0 .193-.008.374-.025.544-.017.17-.037.306-.06.408h-5.303c.09.748.354 1.323.79 1.726.436.402.994.603 1.675.603.362 0 .7-.054 1.011-.162.312-.107.62-.257.926-.45l.663 1.224c-.396.26-.838.476-1.325.646-.488.17-.998.255-1.53.255zm-2.226-5.168h3.706c0-.646-.14-1.153-.417-1.522-.278-.368-.705-.552-1.283-.552-.5 0-.935.176-1.31.527-.374.351-.606.867-.697 1.547zM131.114 82v-8.347h1.614l.136 1.122h.069c.374-.363.779-.674 1.215-.935.436-.26.943-.391 1.522-.391.895 0 1.546.286 1.955.858.408.573.612 1.392.612 2.457V82h-1.955v-4.981c0-.691-.102-1.179-.306-1.462-.205-.283-.539-.425-1.003-.425-.363 0-.683.088-.961.264a6.127 6.127 0 0 0-.943.773V82h-1.955zm12.46.204c-.487 0-.898-.074-1.232-.221a2.09 2.09 0 0 1-.816-.62 2.569 2.569 0 0 1-.459-.953 4.872 4.872 0 0 1-.145-1.232V75.2h-1.19v-1.462l1.292-.085.238-2.278h1.632v2.278h2.125V75.2h-2.125v3.978c0 .975.391 1.462 1.173 1.462.148 0 .298-.017.451-.051.153-.034.292-.08.417-.136l.34 1.445c-.227.08-.485.15-.774.212a4.389 4.389 0 0 1-.927.094zM41.575 103V91.882h3.503c.612 0 1.181.057 1.708.17.527.113.983.306 1.369.578.385.272.685.626.9 1.063.216.436.323.977.323 1.623 0 .612-.107 1.145-.323 1.598-.215.453-.512.83-.892 1.13-.38.3-.827.522-1.343.663a6.302 6.302 0 0 1-1.675.213h-1.598V103h-1.972zm1.973-5.661h1.445c1.632 0 2.448-.674 2.448-2.023 0-.703-.213-1.187-.638-1.454-.425-.266-1.051-.399-1.878-.399h-1.377v3.876zM51.299 103v-8.347h1.614l.137 1.479h.068c.294-.544.651-.96 1.07-1.25.42-.289.85-.433 1.292-.433.397 0 .714.057.953.17l-.34 1.7a3.57 3.57 0 0 0-.409-.102 2.62 2.62 0 0 0-.459-.034c-.328 0-.674.127-1.037.382-.362.256-.674.7-.934 1.335v5.1h-1.956zm9.91.204a4.33 4.33 0 0 1-1.615-.297 3.835 3.835 0 0 1-1.309-.859 3.916 3.916 0 0 1-.875-1.368c-.21-.539-.314-1.154-.314-1.845 0-.68.107-1.292.323-1.836a4.212 4.212 0 0 1 .858-1.377 3.804 3.804 0 0 1 1.233-.867 3.52 3.52 0 0 1 1.428-.306c.566 0 1.065.096 1.495.289.431.193.791.465 1.08.816.289.351.507.77.654 1.258.148.487.221 1.02.221 1.598 0 .193-.008.374-.025.544-.017.17-.037.306-.06.408H59c.09.748.354 1.323.79 1.726.436.402.994.603 1.675.603.362 0 .7-.054 1.011-.162.312-.107.62-.257.927-.45l.663 1.224c-.397.26-.84.476-1.327.646-.487.17-.997.255-1.53.255zm-2.227-5.168h3.706c0-.646-.138-1.153-.416-1.522-.278-.368-.705-.552-1.283-.552-.5 0-.935.176-1.31.527-.374.351-.606.867-.697 1.547zm9.605 5.168c-.578 0-1.147-.11-1.708-.331a5.528 5.528 0 0 1-1.453-.825l.917-1.258c.375.295.746.524 1.114.688.368.165.768.247 1.199.247.453 0 .787-.093 1.003-.28a.913.913 0 0 0 .322-.723.71.71 0 0 0-.152-.45 1.47 1.47 0 0 0-.408-.349 3.922 3.922 0 0 0-.578-.28c-.216-.086-.431-.173-.646-.264-.273-.102-.55-.221-.833-.357a3.349 3.349 0 0 1-.757-.493 2.487 2.487 0 0 1-.544-.671 1.845 1.845 0 0 1-.212-.91c0-.737.271-1.337.816-1.802.544-.465 1.286-.697 2.227-.697.578 0 1.099.102 1.564.306.464.204.866.436 1.207.697l-.901 1.19a4.663 4.663 0 0 0-.893-.518c-.3-.13-.615-.196-.943-.196-.42 0-.729.088-.927.264a.84.84 0 0 0-.297.654c0 .17.048.314.144.433.096.12.224.224.383.315.158.09.342.176.552.255.21.08.428.159.655.238.283.102.566.218.85.349.283.13.54.291.773.484.232.193.42.428.561.706.142.277.213.609.213.994a2.336 2.336 0 0 1-.833 1.828 3.022 3.022 0 0 1-1.02.552 4.4 4.4 0 0 1-1.394.204zm8.569 0a4.33 4.33 0 0 1-1.615-.297 3.835 3.835 0 0 1-1.31-.859 3.916 3.916 0 0 1-.875-1.368c-.21-.539-.314-1.154-.314-1.845 0-.68.107-1.292.323-1.836a4.212 4.212 0 0 1 .858-1.377 3.804 3.804 0 0 1 1.233-.867 3.52 3.52 0 0 1 1.428-.306c.566 0 1.065.096 1.496.289.43.193.79.465 1.079.816.289.351.507.77.654 1.258.148.487.222 1.02.222 1.598 0 .193-.009.374-.026.544-.017.17-.037.306-.06.408h-5.303c.09.748.354 1.323.79 1.726.436.402.994.603 1.675.603.362 0 .7-.054 1.011-.162.312-.107.62-.257.927-.45l.663 1.224c-.397.26-.84.476-1.326.646-.488.17-.998.255-1.53.255zm-2.227-5.168h3.706c0-.646-.14-1.153-.417-1.522-.278-.368-.705-.552-1.283-.552-.5 0-.935.176-1.31.527-.374.351-.606.867-.696 1.547zM82.205 103v-8.347h1.615l.136 1.122h.068c.374-.363.779-.674 1.215-.935.436-.26.943-.391 1.522-.391.895 0 1.546.286 1.955.859.408.572.612 1.39.612 2.456V103h-1.955v-4.981c0-.691-.102-1.179-.306-1.462-.205-.283-.539-.425-1.003-.425-.363 0-.683.088-.961.263a6.127 6.127 0 0 0-.943.774V103h-1.955zm12.46.204c-.487 0-.898-.074-1.232-.221a2.09 2.09 0 0 1-.816-.62 2.569 2.569 0 0 1-.459-.953 4.872 4.872 0 0 1-.144-1.232V96.2h-1.19v-1.462l1.292-.085.238-2.278h1.632v2.278h2.125V96.2h-2.125v3.978c0 .975.39 1.462 1.173 1.462.147 0 .297-.017.45-.051.153-.034.292-.08.417-.136l.34 1.445c-.227.08-.485.15-.774.213a4.389 4.389 0 0 1-.926.093zm5.22 0c-.737 0-1.332-.224-1.785-.671-.454-.448-.68-1.04-.68-1.777 0-.442.093-.836.28-1.181.187-.346.482-.644.884-.893.402-.25.912-.459 1.53-.629.618-.17 1.357-.3 2.219-.391a3.15 3.15 0 0 0-.094-.62 1.426 1.426 0 0 0-.255-.528 1.186 1.186 0 0 0-.467-.356 1.769 1.769 0 0 0-.714-.128c-.409 0-.808.08-1.199.238a8.06 8.06 0 0 0-1.147.578l-.714-1.309c.464-.295.985-.55 1.564-.765a5.314 5.314 0 0 1 1.87-.323c1.042 0 1.821.309 2.337.927.516.617.774 1.51.774 2.677V103h-1.615l-.136-.918h-.068a6.133 6.133 0 0 1-1.199.799 3.021 3.021 0 0 1-1.385.323zm.629-1.53c.34 0 .648-.08.926-.238.278-.159.575-.385.893-.68v-1.87a8.924 8.924 0 0 0-1.428.272c-.386.113-.697.24-.935.382-.239.142-.408.304-.51.485a1.16 1.16 0 0 0-.153.578c0 .374.113.646.34.816.226.17.515.255.867.255zm9.06 1.53c-.487 0-.898-.074-1.232-.221a2.09 2.09 0 0 1-.816-.62 2.569 2.569 0 0 1-.459-.953 4.872 4.872 0 0 1-.144-1.232V96.2h-1.19v-1.462l1.292-.085.238-2.278h1.632v2.278h2.125V96.2h-2.125v3.978c0 .975.39 1.462 1.173 1.462.147 0 .297-.017.45-.051.153-.034.292-.08.417-.136l.34 1.445c-.227.08-.485.15-.774.213a4.389 4.389 0 0 1-.926.093zm3.197-.204v-8.347h1.955V103h-1.955zm.986-9.809c-.352 0-.64-.102-.867-.306a1.024 1.024 0 0 1-.34-.799c0-.329.113-.598.34-.808.226-.21.515-.314.867-.314.35 0 .64.105.867.314.226.21.34.48.34.808 0 .329-.114.595-.34.799-.227.204-.516.306-.867.306zm6.885 10.013a3.95 3.95 0 0 1-1.496-.289 3.722 3.722 0 0 1-1.267-.85 4.066 4.066 0 0 1-.875-1.377c-.216-.544-.323-1.162-.323-1.853 0-.691.107-1.309.323-1.853a4.066 4.066 0 0 1 .875-1.377 3.851 3.851 0 0 1 2.762-1.156c.522 0 1.023.1 1.505.297.482.199.904.485 1.267.859.362.374.654.833.875 1.377.221.544.332 1.162.332 1.853 0 .691-.111 1.309-.332 1.853a4.247 4.247 0 0 1-.875 1.377 3.616 3.616 0 0 1-1.267.85 4.014 4.014 0 0 1-1.504.289zm0-1.598c.612 0 1.093-.252 1.445-.756.35-.505.527-1.176.527-2.015 0-.85-.176-1.527-.527-2.031-.352-.505-.833-.757-1.445-.757-.613 0-1.091.252-1.437.757-.346.504-.518 1.181-.518 2.031 0 .839.172 1.51.518 2.015.346.504.824.756 1.437.756zm5.916 1.394v-8.347h1.615l.136 1.122h.068c.374-.363.779-.674 1.215-.935.436-.26.943-.391 1.522-.391.895 0 1.546.286 1.955.859.408.572.612 1.39.612 2.456V103h-1.955v-4.981c0-.691-.102-1.179-.306-1.462-.205-.283-.539-.425-1.003-.425-.363 0-.683.088-.961.263a6.127 6.127 0 0 0-.943.774V103h-1.955z" fill="#1A2F28"/><path d="M16.162 184v-9.156h1.666l2.856 5.152.938 1.946h.056a99.823 99.823 0 0 0-.133-1.533 16.981 16.981 0 0 1-.077-1.589v-3.976h1.554V184h-1.666l-2.856-5.152-.938-1.946h-.056c.037.485.082.994.133 1.526.051.532.077 1.055.077 1.568V184h-1.554zm11.858.168c-.43 0-.84-.08-1.232-.238a3.065 3.065 0 0 1-1.043-.7 3.349 3.349 0 0 1-.721-1.134c-.177-.448-.266-.957-.266-1.526 0-.57.089-1.078.266-1.526.177-.448.418-.826.721-1.134a3.172 3.172 0 0 1 2.275-.952c.43 0 .842.082 1.239.245.397.163.744.399 1.043.707.299.308.539.686.721 1.134.182.448.273.957.273 1.526 0 .57-.091 1.078-.273 1.526a3.497 3.497 0 0 1-.721 1.134 2.978 2.978 0 0 1-1.043.7c-.397.159-.81.238-1.239.238zm0-1.316c.504 0 .9-.208 1.19-.623.29-.415.434-.968.434-1.659 0-.7-.145-1.258-.434-1.673a1.374 1.374 0 0 0-1.19-.623c-.504 0-.898.208-1.183.623-.285.415-.427.973-.427 1.673 0 .69.142 1.244.427 1.659.285.415.679.623 1.183.623zm7.294 1.316c-.401 0-.74-.06-1.015-.182a1.72 1.72 0 0 1-.672-.511 2.115 2.115 0 0 1-.378-.784 4.013 4.013 0 0 1-.119-1.015V178.4h-.98v-1.204l1.064-.07.196-1.876h1.344v1.876h1.75v1.274h-1.75v3.276c0 .803.322 1.204.966 1.204.121 0 .245-.014.371-.042a1.74 1.74 0 0 0 .343-.112l.28 1.19a5.359 5.359 0 0 1-.637.175 3.614 3.614 0 0 1-.763.077zm5.432-.168v-6.874h1.61V184h-1.61zm.812-8.078c-.29 0-.527-.084-.714-.252a.844.844 0 0 1-.28-.658c0-.27.093-.492.28-.665.187-.173.425-.259.714-.259.29 0 .527.086.714.259.187.173.28.394.28.665 0 .27-.093.49-.28.658-.187.168-.425.252-.714.252zM44.414 184v-6.874h1.33l.112.924h.056a5.45 5.45 0 0 1 1.001-.77c.36-.215.777-.322 1.253-.322.737 0 1.274.236 1.61.707.336.471.504 1.146.504 2.023V184h-1.61v-4.102c0-.57-.084-.97-.252-1.204-.168-.233-.443-.35-.826-.35-.299 0-.562.072-.791.217a5.046 5.046 0 0 0-.777.637V184h-1.61zm10.64 0v-6.874h1.33l.112 1.218h.056c.243-.448.537-.791.882-1.029.345-.238.7-.357 1.064-.357.327 0 .588.047.784.14l-.28 1.4a2.157 2.157 0 0 0-.714-.112c-.27 0-.555.105-.854.315-.299.21-.555.576-.77 1.099v4.2h-1.61zm8.162.168c-.476 0-.92-.082-1.33-.245a3.158 3.158 0 0 1-1.078-.707 3.225 3.225 0 0 1-.721-1.127c-.173-.443-.259-.95-.259-1.519 0-.56.089-1.064.266-1.512.177-.448.413-.826.707-1.134a3.132 3.132 0 0 1 1.015-.714 2.898 2.898 0 0 1 1.176-.252c.467 0 .877.08 1.232.238.355.159.651.383.889.672.238.29.418.635.539 1.036.121.401.182.84.182 1.316 0 .159-.007.308-.021.448-.014.14-.03.252-.049.336h-4.368c.075.616.292 1.09.651 1.421.36.331.819.497 1.379.497.299 0 .576-.044.833-.133.257-.089.511-.212.763-.371l.546 1.008c-.327.215-.69.392-1.092.532-.401.14-.821.21-1.26.21zm-1.834-4.256h3.052c0-.532-.114-.95-.343-1.253-.229-.303-.581-.455-1.057-.455-.41 0-.77.145-1.078.434-.308.29-.5.714-.574 1.274zm8.4 4.256c-.868 0-1.556-.315-2.065-.945-.509-.63-.763-1.514-.763-2.653 0-.56.082-1.064.245-1.512.163-.448.38-.826.651-1.134.27-.308.581-.546.931-.714a2.48 2.48 0 0 1 1.085-.252c.392 0 .723.068.994.203.27.135.541.32.812.553l-.056-1.106v-2.492h1.61V184h-1.33l-.112-.742h-.056a3.64 3.64 0 0 1-.882.644c-.336.177-.69.266-1.064.266zm.392-1.33c.513 0 .994-.257 1.442-.77v-3.206a2.277 2.277 0 0 0-.707-.448 1.996 1.996 0 0 0-.693-.126c-.448 0-.826.196-1.134.588-.308.392-.462.952-.462 1.68 0 .747.133 1.314.399 1.701s.651.581 1.155.581zm8.036 1.33c-.476 0-.92-.082-1.33-.245a3.158 3.158 0 0 1-1.078-.707 3.225 3.225 0 0 1-.721-1.127c-.173-.443-.259-.95-.259-1.519 0-.56.089-1.064.266-1.512.177-.448.413-.826.707-1.134a3.132 3.132 0 0 1 1.015-.714 2.898 2.898 0 0 1 1.176-.252c.467 0 .877.08 1.232.238.355.159.651.383.889.672.238.29.418.635.539 1.036.121.401.182.84.182 1.316 0 .159-.007.308-.021.448-.014.14-.03.252-.049.336H76.39c.075.616.292 1.09.651 1.421.36.331.819.497 1.379.497.299 0 .576-.044.833-.133.257-.089.511-.212.763-.371l.546 1.008c-.327.215-.69.392-1.092.532-.401.14-.821.21-1.26.21zm-1.834-4.256h3.052c0-.532-.114-.95-.343-1.253-.229-.303-.581-.455-1.057-.455-.41 0-.77.145-1.078.434-.308.29-.5.714-.574 1.274zm7.91 4.256a3.81 3.81 0 0 1-1.407-.273 4.552 4.552 0 0 1-1.197-.679l.756-1.036c.308.243.614.432.917.567.303.135.632.203.987.203.373 0 .649-.077.826-.231a.752.752 0 0 0 .266-.595.585.585 0 0 0-.126-.371 1.21 1.21 0 0 0-.336-.287 3.23 3.23 0 0 0-.476-.231c-.177-.07-.355-.142-.532-.217a8.418 8.418 0 0 1-.686-.294 2.758 2.758 0 0 1-.623-.406 2.048 2.048 0 0 1-.448-.553 1.519 1.519 0 0 1-.175-.749c0-.607.224-1.101.672-1.484.448-.383 1.06-.574 1.834-.574.476 0 .905.084 1.288.252.383.168.714.36.994.574l-.742.98a3.84 3.84 0 0 0-.735-.427 1.931 1.931 0 0 0-.777-.161c-.345 0-.6.072-.763.217a.691.691 0 0 0-.245.539c0 .14.04.259.119.357.08.098.184.184.315.259.13.075.282.145.455.21.173.065.352.13.539.196.233.084.467.18.7.287.233.107.446.24.637.399.191.159.345.352.462.581.117.229.175.502.175.819a1.924 1.924 0 0 1-.686 1.505 2.489 2.489 0 0 1-.84.455 3.624 3.624 0 0 1-1.148.168zm4.116-.168v-6.874h1.61V184h-1.61zm.812-8.078c-.29 0-.527-.084-.714-.252a.844.844 0 0 1-.28-.658c0-.27.093-.492.28-.665.187-.173.425-.259.714-.259.29 0 .527.086.714.259.187.173.28.394.28.665 0 .27-.093.49-.28.658-.187.168-.425.252-.714.252zm5.25 11.116a5.47 5.47 0 0 1-1.141-.112 2.983 2.983 0 0 1-.903-.336 1.762 1.762 0 0 1-.595-.56 1.413 1.413 0 0 1-.217-.784c0-.29.084-.558.252-.805.168-.247.41-.469.728-.665v-.056a1.395 1.395 0 0 1-.441-.448c-.117-.187-.175-.42-.175-.7 0-.27.077-.516.231-.735.154-.22.329-.399.525-.539v-.056a2.46 2.46 0 0 1-.623-.735 2.117 2.117 0 0 1-.273-1.085c0-.392.075-.742.224-1.05.15-.308.348-.567.595-.777a2.54 2.54 0 0 1 .861-.476 3.298 3.298 0 0 1 1.575-.112c.173.033.329.072.469.119h2.464v1.19h-1.26c.112.13.205.296.28.497.075.2.112.422.112.665 0 .383-.068.719-.203 1.008-.135.29-.32.532-.553.728a2.432 2.432 0 0 1-.826.448 3.301 3.301 0 0 1-1.022.154c-.15 0-.303-.014-.462-.042a2.297 2.297 0 0 1-.476-.14 1.461 1.461 0 0 0-.245.28.686.686 0 0 0-.091.378c0 .196.082.35.245.462.163.112.455.168.875.168h1.218c.83 0 1.458.133 1.883.399.425.266.637.698.637 1.295 0 .336-.086.653-.259.952a2.351 2.351 0 0 1-.735.77 3.93 3.93 0 0 1-1.155.511 5.663 5.663 0 0 1-1.519.189zm.084-6.23c.327 0 .607-.119.84-.357.233-.238.35-.581.35-1.029 0-.43-.114-.763-.343-1.001a1.128 1.128 0 0 0-.847-.357c-.336 0-.62.117-.854.35-.233.233-.35.57-.35 1.008 0 .448.117.791.35 1.029.233.238.518.357.854.357zm.168 5.18c.56 0 1.01-.11 1.351-.329.34-.22.511-.478.511-.777 0-.27-.105-.453-.315-.546-.21-.093-.511-.14-.903-.14h-.938c-.373 0-.686-.033-.938-.098-.355.27-.532.574-.532.91 0 .308.156.548.469.721.313.173.744.259 1.295.259zM99.35 184v-6.874h1.33l.112.924h.056a5.45 5.45 0 0 1 1.001-.77c.36-.215.777-.322 1.253-.322.737 0 1.274.236 1.61.707.336.471.504 1.146.504 2.023V184h-1.61v-4.102c0-.57-.084-.97-.252-1.204-.168-.233-.443-.35-.826-.35-.299 0-.562.072-.791.217a5.046 5.046 0 0 0-.777.637V184h-1.61zm12.558.168a3.81 3.81 0 0 1-1.407-.273 4.552 4.552 0 0 1-1.197-.679l.756-1.036c.308.243.614.432.917.567.303.135.632.203.987.203.373 0 .649-.077.826-.231a.752.752 0 0 0 .266-.595.585.585 0 0 0-.126-.371 1.21 1.21 0 0 0-.336-.287 3.23 3.23 0 0 0-.476-.231c-.177-.07-.355-.142-.532-.217a8.418 8.418 0 0 1-.686-.294 2.758 2.758 0 0 1-.623-.406 2.048 2.048 0 0 1-.448-.553 1.519 1.519 0 0 1-.175-.749c0-.607.224-1.101.672-1.484.448-.383 1.06-.574 1.834-.574.476 0 .905.084 1.288.252.383.168.714.36.994.574l-.742.98a3.84 3.84 0 0 0-.735-.427 1.931 1.931 0 0 0-.777-.161c-.345 0-.6.072-.763.217a.691.691 0 0 0-.245.539c0 .14.04.259.119.357.08.098.184.184.315.259.13.075.282.145.455.21.173.065.352.13.539.196.233.084.467.18.7.287.233.107.446.24.637.399.191.159.345.352.462.581.117.229.175.502.175.819a1.924 1.924 0 0 1-.686 1.505 2.489 2.489 0 0 1-.84.455 3.624 3.624 0 0 1-1.148.168zm6.986 0c-.467 0-.903-.08-1.309-.238a2.95 2.95 0 0 1-1.057-.7 3.237 3.237 0 0 1-.7-1.134 4.324 4.324 0 0 1-.252-1.526c0-.57.093-1.078.28-1.526.187-.448.439-.826.756-1.134a3.291 3.291 0 0 1 1.099-.707 3.545 3.545 0 0 1 1.309-.245c.448 0 .833.075 1.155.224.322.15.609.331.861.546l-.784 1.05a2.666 2.666 0 0 0-.553-.371 1.34 1.34 0 0 0-.595-.133c-.56 0-1.013.208-1.358.623-.345.415-.518.973-.518 1.673 0 .69.17 1.244.511 1.659.34.415.782.623 1.323.623.27 0 .525-.058.763-.175.238-.117.455-.254.651-.413l.658 1.064c-.327.28-.684.49-1.071.63-.387.14-.777.21-1.169.21zm6.412 0c-.43 0-.84-.08-1.232-.238a3.065 3.065 0 0 1-1.043-.7 3.349 3.349 0 0 1-.721-1.134c-.177-.448-.266-.957-.266-1.526 0-.57.089-1.078.266-1.526.177-.448.418-.826.721-1.134a3.172 3.172 0 0 1 2.275-.952c.43 0 .842.082 1.239.245.397.163.744.399 1.043.707.299.308.539.686.721 1.134.182.448.273.957.273 1.526 0 .57-.091 1.078-.273 1.526a3.497 3.497 0 0 1-.721 1.134 2.978 2.978 0 0 1-1.043.7c-.397.159-.81.238-1.239.238zm0-1.316c.504 0 .9-.208 1.19-.623.29-.415.434-.968.434-1.659 0-.7-.145-1.258-.434-1.673a1.374 1.374 0 0 0-1.19-.623c-.504 0-.898.208-1.183.623-.285.415-.427.973-.427 1.673 0 .69.142 1.244.427 1.659.285.415.679.623 1.183.623zm4.872 3.864v-9.59h1.33l.112.728h.056a4.92 4.92 0 0 1 .966-.63 2.443 2.443 0 0 1 1.106-.266c.43 0 .81.082 1.141.245.331.163.614.399.847.707.233.308.41.677.532 1.106.121.43.182.91.182 1.442 0 .588-.082 1.113-.245 1.575-.163.462-.38.85-.651 1.162-.27.313-.583.553-.938.721a2.554 2.554 0 0 1-1.106.252 2.22 2.22 0 0 1-.896-.196 3.428 3.428 0 0 1-.868-.56l.042 1.148v2.156h-1.61zm2.996-3.878c.457 0 .84-.198 1.148-.595.308-.397.462-.987.462-1.771 0-.69-.117-1.227-.35-1.61-.233-.383-.611-.574-1.134-.574-.485 0-.99.257-1.512.77v3.206c.252.215.495.364.728.448.233.084.453.126.658.126zm7.84 1.33c-.476 0-.92-.082-1.33-.245a3.158 3.158 0 0 1-1.078-.707 3.225 3.225 0 0 1-.721-1.127c-.173-.443-.259-.95-.259-1.519 0-.56.089-1.064.266-1.512.177-.448.413-.826.707-1.134a3.132 3.132 0 0 1 1.015-.714 2.898 2.898 0 0 1 1.176-.252c.467 0 .877.08 1.232.238.355.159.651.383.889.672.238.29.418.635.539 1.036.121.401.182.84.182 1.316 0 .159-.007.308-.021.448-.014.14-.03.252-.049.336h-4.368c.075.616.292 1.09.651 1.421.36.331.819.497 1.379.497.299 0 .576-.044.833-.133.257-.089.511-.212.763-.371l.546 1.008c-.327.215-.69.392-1.092.532-.401.14-.821.21-1.26.21zm-1.834-4.256h3.052c0-.532-.114-.95-.343-1.253-.229-.303-.581-.455-1.057-.455-.41 0-.77.145-1.078.434-.308.29-.5.714-.574 1.274z" fill="#8F0617"/></g><g><g transform="translate(180 15)"><use fill="#000" filter="url(#e)" xlink:href="#f"/><use fill="#F0F7F6" xlink:href="#f"/></g><path d="M231.92 76.084l-.391 1.36h2.839l-.391-1.36a46.457 46.457 0 0 1-.518-1.819c-.165-.623-.326-1.241-.485-1.853h-.068c-.159.623-.317 1.244-.476 1.861a39.98 39.98 0 0 1-.51 1.811zM228.197 82l3.621-11.118h2.312L237.751 82h-2.074l-.867-3.009h-3.74L230.203 82h-2.006zm14.246.204a4.328 4.328 0 0 1-1.59-.289 3.582 3.582 0 0 1-1.283-.85 3.93 3.93 0 0 1-.85-1.377c-.204-.544-.306-1.162-.306-1.853 0-.691.113-1.309.34-1.853a4.074 4.074 0 0 1 .918-1.377c.385-.374.83-.66 1.335-.859a4.304 4.304 0 0 1 1.589-.297c.544 0 1.011.09 1.403.272.39.181.739.402 1.045.663l-.952 1.275a3.237 3.237 0 0 0-.672-.45 1.627 1.627 0 0 0-.722-.162c-.68 0-1.23.252-1.649.757-.42.504-.629 1.181-.629 2.031 0 .839.207 1.51.62 2.015.414.504.95.756 1.607.756.329 0 .637-.07.927-.212.289-.142.552-.31.79-.502l.799 1.292a4.16 4.16 0 0 1-1.3.765 4.15 4.15 0 0 1-1.42.255zm7.854 0a4.328 4.328 0 0 1-1.59-.289 3.582 3.582 0 0 1-1.283-.85 3.93 3.93 0 0 1-.85-1.377c-.204-.544-.306-1.162-.306-1.853 0-.691.113-1.309.34-1.853a4.074 4.074 0 0 1 .918-1.377c.385-.374.83-.66 1.334-.859a4.304 4.304 0 0 1 1.59-.297c.544 0 1.011.09 1.402.272.392.181.74.402 1.046.663l-.952 1.275a3.237 3.237 0 0 0-.672-.45 1.627 1.627 0 0 0-.722-.162c-.68 0-1.23.252-1.649.757-.42.504-.629 1.181-.629 2.031 0 .839.207 1.51.62 2.015.414.504.95.756 1.607.756.329 0 .637-.07.926-.212.29-.142.553-.31.791-.502l.799 1.292a4.16 4.16 0 0 1-1.3.765 4.15 4.15 0 0 1-1.42.255zm7.939 0a4.33 4.33 0 0 1-1.615-.297 3.835 3.835 0 0 1-1.309-.859 3.916 3.916 0 0 1-.876-1.368c-.21-.539-.314-1.154-.314-1.845 0-.68.108-1.292.323-1.836a4.212 4.212 0 0 1 .858-1.377 3.804 3.804 0 0 1 1.233-.867 3.52 3.52 0 0 1 1.428-.306c.567 0 1.065.096 1.496.289.43.193.79.465 1.08.816.289.351.507.77.654 1.258.147.487.221 1.02.221 1.598 0 .193-.008.374-.026.544-.017.17-.036.306-.059.408h-5.304c.09.748.354 1.323.79 1.726.437.402.995.603 1.675.603.363 0 .7-.054 1.011-.162.312-.107.621-.257.927-.45l.663 1.224c-.397.26-.839.476-1.326.646-.487.17-.997.255-1.53.255zm-2.227-5.168h3.706c0-.646-.139-1.153-.416-1.522-.278-.368-.706-.552-1.284-.552-.499 0-.935.176-1.309.527-.374.351-.606.867-.697 1.547zm7.276 8.262V73.653h1.615l.136.884h.068c.351-.295.742-.55 1.173-.765.43-.215.878-.323 1.343-.323.521 0 .983.1 1.386.297.402.199.745.485 1.028.859a4 4 0 0 1 .646 1.343c.147.521.221 1.105.221 1.751 0 .714-.1 1.351-.297 1.912-.199.562-.462 1.032-.791 1.411-.329.38-.708.672-1.139.876-.43.204-.878.306-1.343.306-.363 0-.725-.08-1.088-.238a4.163 4.163 0 0 1-1.054-.68l.051 1.394v2.618h-1.955zm3.638-4.709c.555 0 1.02-.24 1.394-.722.374-.482.561-1.199.561-2.151 0-.839-.142-1.49-.425-1.955-.283-.465-.742-.697-1.377-.697-.59 0-1.201.312-1.836.935v3.893c.306.26.6.442.884.544.283.102.55.153.799.153zm8.891 1.615c-.487 0-.898-.074-1.233-.221a2.09 2.09 0 0 1-.816-.62 2.569 2.569 0 0 1-.459-.953 4.872 4.872 0 0 1-.144-1.232V75.2h-1.19v-1.462l1.292-.085.238-2.278h1.632v2.278h2.125V75.2h-2.125v3.978c0 .975.391 1.462 1.173 1.462.147 0 .297-.017.45-.051.154-.034.292-.08.417-.136l.34 1.445c-.227.08-.484.15-.774.212a4.389 4.389 0 0 1-.926.094zM203.47 103V91.882h3.502c.613 0 1.182.057 1.709.17.527.113.983.306 1.368.578.386.272.686.626.901 1.063.216.436.323.977.323 1.623 0 .612-.107 1.145-.323 1.598-.215.453-.512.83-.892 1.13-.38.3-.827.522-1.343.663a6.302 6.302 0 0 1-1.675.213h-1.598V103h-1.972zm1.972-5.661h1.445c1.633 0 2.448-.674 2.448-2.023 0-.703-.212-1.187-.637-1.454-.425-.266-1.051-.399-1.879-.399h-1.377v3.876zm9.775 5.865c-.736 0-1.331-.224-1.785-.671-.453-.448-.68-1.04-.68-1.777 0-.442.094-.836.281-1.181.187-.346.482-.644.884-.893.402-.25.912-.459 1.53-.629.618-.17 1.357-.3 2.218-.391a3.15 3.15 0 0 0-.093-.62 1.426 1.426 0 0 0-.255-.528 1.186 1.186 0 0 0-.468-.356 1.769 1.769 0 0 0-.714-.128c-.408 0-.807.08-1.198.238a8.06 8.06 0 0 0-1.148.578l-.714-1.309c.465-.295.986-.55 1.564-.765a5.314 5.314 0 0 1 1.87-.323c1.043 0 1.822.309 2.338.927.516.617.773 1.51.773 2.677V103h-1.615l-.136-.918h-.068a6.133 6.133 0 0 1-1.198.799 3.021 3.021 0 0 1-1.386.323zm.63-1.53c.34 0 .648-.08.926-.238.278-.159.575-.385.892-.68v-1.87a8.924 8.924 0 0 0-1.428.272c-.385.113-.696.24-.935.382-.238.142-.407.304-.51.485a1.16 1.16 0 0 0-.153.578c0 .374.114.646.34.816.227.17.516.255.867.255zm6.68 4.76c-.226 0-.424-.014-.595-.043a2.861 2.861 0 0 1-.493-.127l.357-1.53c.08.023.173.048.281.077.108.028.212.042.314.042.443 0 .797-.133 1.063-.4.266-.266.467-.609.603-1.028l.153-.527-3.28-8.245h1.988l1.445 4.097c.125.363.247.745.366 1.147.119.403.24.802.365 1.199h.068a451.655 451.655 0 0 1 .63-2.346l1.257-4.097h1.887l-3.026 8.721c-.17.476-.356.901-.56 1.275-.205.374-.44.694-.706.96-.266.267-.572.47-.918.613a3.142 3.142 0 0 1-1.199.212zm7.854-3.434v-8.347h1.615l.136 1.139h.068a5.857 5.857 0 0 1 1.148-.952c.414-.26.881-.391 1.402-.391.613 0 1.103.13 1.471.391.368.26.649.629.841 1.105.397-.43.81-.788 1.241-1.071.431-.283.913-.425 1.445-.425.885 0 1.536.286 1.955.859.42.572.63 1.39.63 2.456V103h-1.973v-4.981c0-.691-.104-1.179-.314-1.462-.21-.283-.53-.425-.96-.425-.522 0-1.105.346-1.752 1.037V103h-1.955v-4.981c0-.691-.104-1.179-.314-1.462-.21-.283-.535-.425-.978-.425-.52 0-1.104.346-1.75 1.037V103h-1.956zm17.901.204a4.33 4.33 0 0 1-1.615-.297 3.835 3.835 0 0 1-1.309-.859 3.916 3.916 0 0 1-.875-1.368c-.21-.539-.315-1.154-.315-1.845 0-.68.108-1.292.323-1.836a4.212 4.212 0 0 1 .859-1.377 3.804 3.804 0 0 1 1.232-.867 3.52 3.52 0 0 1 1.428-.306c.567 0 1.066.096 1.496.289.431.193.791.465 1.08.816.289.351.507.77.654 1.258.148.487.221 1.02.221 1.598 0 .193-.008.374-.025.544-.017.17-.037.306-.06.408h-5.304c.091.748.355 1.323.791 1.726.436.402.994.603 1.674.603.363 0 .7-.054 1.012-.162.312-.107.62-.257.926-.45l.663 1.224c-.396.26-.838.476-1.326.646-.487.17-.997.255-1.53.255zm-2.227-5.168h3.706c0-.646-.138-1.153-.416-1.522-.278-.368-.705-.552-1.284-.552-.498 0-.934.176-1.309.527-.374.351-.606.867-.697 1.547zm7.276 4.964v-8.347h1.615l.136 1.122h.068c.375-.363.78-.674 1.216-.935.436-.26.943-.391 1.522-.391.895 0 1.546.286 1.955.859.408.572.611 1.39.611 2.456V103H258.5v-4.981c0-.691-.101-1.179-.306-1.462-.204-.283-.538-.425-1.003-.425-.362 0-.682.088-.96.263a6.127 6.127 0 0 0-.944.774V103h-1.954zm12.461.204c-.487 0-.898-.074-1.232-.221a2.09 2.09 0 0 1-.816-.62 2.569 2.569 0 0 1-.459-.953 4.872 4.872 0 0 1-.145-1.232V96.2h-1.19v-1.462l1.292-.085.238-2.278h1.632v2.278h2.125V96.2h-2.125v3.978c0 .975.391 1.462 1.173 1.462.148 0 .298-.017.451-.051.153-.034.292-.08.416-.136l.34 1.445c-.226.08-.484.15-.773.213a4.389 4.389 0 0 1-.927.093zm6.766-.204V91.882h3.502c.613 0 1.182.057 1.709.17.527.113.983.306 1.368.578.386.272.686.626.901 1.063.216.436.323.977.323 1.623 0 .612-.107 1.145-.323 1.598-.215.453-.512.83-.892 1.13-.38.3-.827.522-1.343.663a6.302 6.302 0 0 1-1.674.213h-1.598V103h-1.972zm1.972-5.661h1.445c1.633 0 2.448-.674 2.448-2.023 0-.703-.212-1.187-.637-1.454-.425-.266-1.051-.399-1.879-.399h-1.376v3.876zm9.656 5.865c-.702 0-1.195-.21-1.479-.629-.283-.42-.425-.992-.425-1.717v-9.86h1.955v9.962c0 .238.046.405.136.502.091.096.187.144.29.144h.127c.04 0 .1-.011.178-.034l.255 1.462c-.26.113-.606.17-1.037.17zm4.726 0c-.736 0-1.331-.224-1.785-.671-.453-.448-.68-1.04-.68-1.777 0-.442.094-.836.281-1.181.187-.346.482-.644.884-.893.402-.25.912-.459 1.53-.629.618-.17 1.357-.3 2.218-.391a3.15 3.15 0 0 0-.093-.62 1.426 1.426 0 0 0-.255-.528 1.186 1.186 0 0 0-.468-.356 1.769 1.769 0 0 0-.714-.128c-.408 0-.807.08-1.198.238a8.06 8.06 0 0 0-1.148.578l-.714-1.309c.465-.295.986-.55 1.564-.765a5.314 5.314 0 0 1 1.87-.323c1.043 0 1.822.309 2.338.927.516.617.773 1.51.773 2.677V103H291.7l-.136-.918h-.068a6.133 6.133 0 0 1-1.198.799 3.021 3.021 0 0 1-1.386.323zm.63-1.53c.34 0 .648-.08.926-.238.278-.159.575-.385.892-.68v-1.87a8.924 8.924 0 0 0-1.428.272c-.385.113-.696.24-.935.382-.238.142-.407.304-.51.485a1.16 1.16 0 0 0-.153.578c0 .374.114.646.34.816.227.17.516.255.867.255zm6.12 1.326v-8.347h1.615l.136 1.122h.068c.374-.363.779-.674 1.215-.935.436-.26.943-.391 1.522-.391.895 0 1.546.286 1.955.859.408.572.612 1.39.612 2.456V103h-1.956v-4.981c0-.691-.101-1.179-.306-1.462-.204-.283-.538-.425-1.003-.425-.362 0-.682.088-.96.263a6.127 6.127 0 0 0-.943.774V103h-1.955z" fill="#1A2F28"/><path d="M181.162 184v-9.156h1.666l2.856 5.152.938 1.946h.056a99.823 99.823 0 0 0-.133-1.533 16.981 16.981 0 0 1-.077-1.589v-3.976h1.554V184h-1.666l-2.856-5.152-.938-1.946h-.056c.037.485.082.994.133 1.526.051.532.077 1.055.077 1.568V184h-1.554zm11.858.168c-.43 0-.84-.08-1.232-.238a3.065 3.065 0 0 1-1.043-.7 3.349 3.349 0 0 1-.721-1.134c-.177-.448-.266-.957-.266-1.526 0-.57.089-1.078.266-1.526.177-.448.418-.826.721-1.134a3.172 3.172 0 0 1 2.275-.952c.43 0 .842.082 1.239.245.397.163.744.399 1.043.707.299.308.539.686.721 1.134.182.448.273.957.273 1.526 0 .57-.091 1.078-.273 1.526a3.497 3.497 0 0 1-.721 1.134 2.978 2.978 0 0 1-1.043.7c-.397.159-.81.238-1.239.238zm0-1.316c.504 0 .9-.208 1.19-.623.29-.415.434-.968.434-1.659 0-.7-.145-1.258-.434-1.673a1.374 1.374 0 0 0-1.19-.623c-.504 0-.898.208-1.183.623-.285.415-.427.973-.427 1.673 0 .69.142 1.244.427 1.659.285.415.679.623 1.183.623zm7.294 1.316c-.401 0-.74-.06-1.015-.182a1.72 1.72 0 0 1-.672-.511 2.115 2.115 0 0 1-.378-.784 4.013 4.013 0 0 1-.119-1.015V178.4h-.98v-1.204l1.064-.07.196-1.876h1.344v1.876h1.75v1.274h-1.75v3.276c0 .803.322 1.204.966 1.204.121 0 .245-.014.371-.042a1.74 1.74 0 0 0 .343-.112l.28 1.19a5.359 5.359 0 0 1-.637.175 3.614 3.614 0 0 1-.763.077zm5.432-.168v-6.874h1.61V184h-1.61zm.812-8.078c-.29 0-.527-.084-.714-.252a.844.844 0 0 1-.28-.658c0-.27.093-.492.28-.665.187-.173.425-.259.714-.259.29 0 .527.086.714.259.187.173.28.394.28.665 0 .27-.093.49-.28.658-.187.168-.425.252-.714.252zm2.856 8.078v-6.874h1.33l.112.924h.056a5.45 5.45 0 0 1 1.001-.77c.36-.215.777-.322 1.253-.322.737 0 1.274.236 1.61.707.336.471.504 1.146.504 2.023V184h-1.61v-4.102c0-.57-.084-.97-.252-1.204-.168-.233-.443-.35-.826-.35-.299 0-.562.072-.791.217a5.046 5.046 0 0 0-.777.637V184h-1.61zm10.64 0v-6.874h1.33l.112 1.218h.056c.243-.448.537-.791.882-1.029.345-.238.7-.357 1.064-.357.327 0 .588.047.784.14l-.28 1.4a2.157 2.157 0 0 0-.714-.112c-.27 0-.555.105-.854.315-.299.21-.555.576-.77 1.099v4.2h-1.61zm8.162.168c-.476 0-.92-.082-1.33-.245a3.158 3.158 0 0 1-1.078-.707 3.225 3.225 0 0 1-.721-1.127c-.173-.443-.259-.95-.259-1.519 0-.56.089-1.064.266-1.512.177-.448.413-.826.707-1.134a3.132 3.132 0 0 1 1.015-.714 2.898 2.898 0 0 1 1.176-.252c.467 0 .877.08 1.232.238.355.159.651.383.889.672.238.29.418.635.539 1.036.121.401.182.84.182 1.316 0 .159-.007.308-.021.448-.014.14-.03.252-.049.336h-4.368c.075.616.292 1.09.651 1.421.36.331.819.497 1.379.497.299 0 .576-.044.833-.133.257-.089.511-.212.763-.371l.546 1.008c-.327.215-.69.392-1.092.532-.401.14-.821.21-1.26.21zm-1.834-4.256h3.052c0-.532-.114-.95-.343-1.253-.229-.303-.581-.455-1.057-.455-.41 0-.77.145-1.078.434-.308.29-.5.714-.574 1.274zm8.4 4.256c-.868 0-1.556-.315-2.065-.945-.509-.63-.763-1.514-.763-2.653 0-.56.082-1.064.245-1.512.163-.448.38-.826.651-1.134.27-.308.581-.546.931-.714a2.48 2.48 0 0 1 1.085-.252c.392 0 .723.068.994.203.27.135.541.32.812.553l-.056-1.106v-2.492h1.61V184h-1.33l-.112-.742h-.056a3.64 3.64 0 0 1-.882.644c-.336.177-.69.266-1.064.266zm.392-1.33c.513 0 .994-.257 1.442-.77v-3.206a2.277 2.277 0 0 0-.707-.448 1.996 1.996 0 0 0-.693-.126c-.448 0-.826.196-1.134.588-.308.392-.462.952-.462 1.68 0 .747.133 1.314.399 1.701s.651.581 1.155.581zm8.036 1.33c-.476 0-.92-.082-1.33-.245a3.158 3.158 0 0 1-1.078-.707 3.225 3.225 0 0 1-.721-1.127c-.173-.443-.259-.95-.259-1.519 0-.56.089-1.064.266-1.512.177-.448.413-.826.707-1.134a3.132 3.132 0 0 1 1.015-.714 2.898 2.898 0 0 1 1.176-.252c.467 0 .877.08 1.232.238.355.159.651.383.889.672.238.29.418.635.539 1.036.121.401.182.84.182 1.316 0 .159-.007.308-.021.448-.014.14-.03.252-.049.336h-4.368c.075.616.292 1.09.651 1.421.36.331.819.497 1.379.497.299 0 .576-.044.833-.133.257-.089.511-.212.763-.371l.546 1.008c-.327.215-.69.392-1.092.532-.401.14-.821.21-1.26.21zm-1.834-4.256h3.052c0-.532-.114-.95-.343-1.253-.229-.303-.581-.455-1.057-.455-.41 0-.77.145-1.078.434-.308.29-.5.714-.574 1.274zm7.91 4.256a3.81 3.81 0 0 1-1.407-.273 4.552 4.552 0 0 1-1.197-.679l.756-1.036c.308.243.614.432.917.567.303.135.632.203.987.203.373 0 .649-.077.826-.231a.752.752 0 0 0 .266-.595.585.585 0 0 0-.126-.371 1.21 1.21 0 0 0-.336-.287 3.23 3.23 0 0 0-.476-.231c-.177-.07-.355-.142-.532-.217a8.418 8.418 0 0 1-.686-.294 2.758 2.758 0 0 1-.623-.406 2.048 2.048 0 0 1-.448-.553 1.519 1.519 0 0 1-.175-.749c0-.607.224-1.101.672-1.484.448-.383 1.06-.574 1.834-.574.476 0 .905.084 1.288.252.383.168.714.36.994.574l-.742.98a3.84 3.84 0 0 0-.735-.427 1.931 1.931 0 0 0-.777-.161c-.345 0-.6.072-.763.217a.691.691 0 0 0-.245.539c0 .14.04.259.119.357.08.098.184.184.315.259.13.075.282.145.455.21.173.065.352.13.539.196.233.084.467.18.7.287.233.107.446.24.637.399.191.159.345.352.462.581.117.229.175.502.175.819a1.924 1.924 0 0 1-.686 1.505 2.489 2.489 0 0 1-.84.455 3.624 3.624 0 0 1-1.148.168zm4.116-.168v-6.874h1.61V184h-1.61zm.812-8.078c-.29 0-.527-.084-.714-.252a.844.844 0 0 1-.28-.658c0-.27.093-.492.28-.665.187-.173.425-.259.714-.259.29 0 .527.086.714.259.187.173.28.394.28.665 0 .27-.093.49-.28.658-.187.168-.425.252-.714.252zm5.25 11.116a5.47 5.47 0 0 1-1.141-.112 2.983 2.983 0 0 1-.903-.336 1.762 1.762 0 0 1-.595-.56 1.413 1.413 0 0 1-.217-.784c0-.29.084-.558.252-.805.168-.247.41-.469.728-.665v-.056a1.395 1.395 0 0 1-.441-.448c-.117-.187-.175-.42-.175-.7 0-.27.077-.516.231-.735.154-.22.329-.399.525-.539v-.056a2.46 2.46 0 0 1-.623-.735 2.117 2.117 0 0 1-.273-1.085c0-.392.075-.742.224-1.05.15-.308.348-.567.595-.777a2.54 2.54 0 0 1 .861-.476 3.298 3.298 0 0 1 1.575-.112c.173.033.329.072.469.119h2.464v1.19h-1.26c.112.13.205.296.28.497.075.2.112.422.112.665 0 .383-.068.719-.203 1.008-.135.29-.32.532-.553.728a2.432 2.432 0 0 1-.826.448 3.301 3.301 0 0 1-1.022.154c-.15 0-.303-.014-.462-.042a2.297 2.297 0 0 1-.476-.14 1.461 1.461 0 0 0-.245.28.686.686 0 0 0-.091.378c0 .196.082.35.245.462.163.112.455.168.875.168h1.218c.83 0 1.458.133 1.883.399.425.266.637.698.637 1.295 0 .336-.086.653-.259.952a2.351 2.351 0 0 1-.735.77 3.93 3.93 0 0 1-1.155.511 5.663 5.663 0 0 1-1.519.189zm.084-6.23c.327 0 .607-.119.84-.357.233-.238.35-.581.35-1.029 0-.43-.114-.763-.343-1.001a1.128 1.128 0 0 0-.847-.357c-.336 0-.62.117-.854.35-.233.233-.35.57-.35 1.008 0 .448.117.791.35 1.029.233.238.518.357.854.357zm.168 5.18c.56 0 1.01-.11 1.351-.329.34-.22.511-.478.511-.777 0-.27-.105-.453-.315-.546-.21-.093-.511-.14-.903-.14h-.938c-.373 0-.686-.033-.938-.098-.355.27-.532.574-.532.91 0 .308.156.548.469.721.313.173.744.259 1.295.259zM264.35 184v-6.874h1.33l.112.924h.056a5.45 5.45 0 0 1 1.001-.77c.36-.215.777-.322 1.253-.322.737 0 1.274.236 1.61.707.336.471.504 1.146.504 2.023V184h-1.61v-4.102c0-.57-.084-.97-.252-1.204-.168-.233-.443-.35-.826-.35-.299 0-.562.072-.791.217a5.046 5.046 0 0 0-.777.637V184h-1.61zm12.558.168a3.81 3.81 0 0 1-1.407-.273 4.552 4.552 0 0 1-1.197-.679l.756-1.036c.308.243.614.432.917.567.303.135.632.203.987.203.373 0 .649-.077.826-.231a.752.752 0 0 0 .266-.595.585.585 0 0 0-.126-.371 1.21 1.21 0 0 0-.336-.287 3.23 3.23 0 0 0-.476-.231c-.177-.07-.355-.142-.532-.217a8.418 8.418 0 0 1-.686-.294 2.758 2.758 0 0 1-.623-.406 2.048 2.048 0 0 1-.448-.553 1.519 1.519 0 0 1-.175-.749c0-.607.224-1.101.672-1.484.448-.383 1.06-.574 1.834-.574.476 0 .905.084 1.288.252.383.168.714.36.994.574l-.742.98a3.84 3.84 0 0 0-.735-.427 1.931 1.931 0 0 0-.777-.161c-.345 0-.6.072-.763.217a.691.691 0 0 0-.245.539c0 .14.04.259.119.357.08.098.184.184.315.259.13.075.282.145.455.21.173.065.352.13.539.196.233.084.467.18.7.287.233.107.446.24.637.399.191.159.345.352.462.581.117.229.175.502.175.819a1.924 1.924 0 0 1-.686 1.505 2.489 2.489 0 0 1-.84.455 3.624 3.624 0 0 1-1.148.168zm6.986 0c-.467 0-.903-.08-1.309-.238a2.95 2.95 0 0 1-1.057-.7 3.237 3.237 0 0 1-.7-1.134 4.324 4.324 0 0 1-.252-1.526c0-.57.093-1.078.28-1.526.187-.448.439-.826.756-1.134a3.291 3.291 0 0 1 1.099-.707 3.545 3.545 0 0 1 1.309-.245c.448 0 .833.075 1.155.224.322.15.609.331.861.546l-.784 1.05a2.666 2.666 0 0 0-.553-.371 1.34 1.34 0 0 0-.595-.133c-.56 0-1.013.208-1.358.623-.345.415-.518.973-.518 1.673 0 .69.17 1.244.511 1.659.34.415.782.623 1.323.623.27 0 .525-.058.763-.175.238-.117.455-.254.651-.413l.658 1.064c-.327.28-.684.49-1.071.63-.387.14-.777.21-1.169.21zm6.412 0c-.43 0-.84-.08-1.232-.238a3.065 3.065 0 0 1-1.043-.7 3.349 3.349 0 0 1-.721-1.134c-.177-.448-.266-.957-.266-1.526 0-.57.089-1.078.266-1.526.177-.448.418-.826.721-1.134a3.172 3.172 0 0 1 2.275-.952c.43 0 .842.082 1.239.245.397.163.744.399 1.043.707.299.308.539.686.721 1.134.182.448.273.957.273 1.526 0 .57-.091 1.078-.273 1.526a3.497 3.497 0 0 1-.721 1.134 2.978 2.978 0 0 1-1.043.7c-.397.159-.81.238-1.239.238zm0-1.316c.504 0 .9-.208 1.19-.623.29-.415.434-.968.434-1.659 0-.7-.145-1.258-.434-1.673a1.374 1.374 0 0 0-1.19-.623c-.504 0-.898.208-1.183.623-.285.415-.427.973-.427 1.673 0 .69.142 1.244.427 1.659.285.415.679.623 1.183.623zm4.872 3.864v-9.59h1.33l.112.728h.056a4.92 4.92 0 0 1 .966-.63 2.443 2.443 0 0 1 1.106-.266c.43 0 .81.082 1.141.245.331.163.614.399.847.707.233.308.41.677.532 1.106.121.43.182.91.182 1.442 0 .588-.082 1.113-.245 1.575-.163.462-.38.85-.651 1.162-.27.313-.583.553-.938.721a2.554 2.554 0 0 1-1.106.252 2.22 2.22 0 0 1-.896-.196 3.428 3.428 0 0 1-.868-.56l.042 1.148v2.156h-1.61zm2.996-3.878c.457 0 .84-.198 1.148-.595.308-.397.462-.987.462-1.771 0-.69-.117-1.227-.35-1.61-.233-.383-.611-.574-1.134-.574-.485 0-.99.257-1.512.77v3.206c.252.215.495.364.728.448.233.084.453.126.658.126zm7.84 1.33c-.476 0-.92-.082-1.33-.245a3.158 3.158 0 0 1-1.078-.707 3.225 3.225 0 0 1-.721-1.127c-.173-.443-.259-.95-.259-1.519 0-.56.089-1.064.266-1.512.177-.448.413-.826.707-1.134a3.132 3.132 0 0 1 1.015-.714 2.898 2.898 0 0 1 1.176-.252c.467 0 .877.08 1.232.238.355.159.651.383.889.672.238.29.418.635.539 1.036.121.401.182.84.182 1.316 0 .159-.007.308-.021.448-.014.14-.03.252-.049.336h-4.368c.075.616.292 1.09.651 1.421.36.331.819.497 1.379.497.299 0 .576-.044.833-.133.257-.089.511-.212.763-.371l.546 1.008c-.327.215-.69.392-1.092.532-.401.14-.821.21-1.26.21zm-1.834-4.256h3.052c0-.532-.114-.95-.343-1.253-.229-.303-.581-.455-1.057-.455-.41 0-.77.145-1.078.434-.308.29-.5.714-.574 1.274z" fill="#8F0617"/></g></g></svg>