<svg width="31" height="30" viewBox="0 0 31 30" xmlns="http://www.w3.org/2000/svg"><title>dribble</title><path d="M20.285 16.48c1.07 2.983 1.917 5.997 2.487 9.128 3.006-2.13 4.834-4.964 5.482-8.585-2.628-.73-5.262-.95-7.97-.543M18.4 11.953c.31.697.618 1.377.917 2.06.191.439.185.441.67.397.064-.006.129-.007.194-.013 2.255-.213 4.5-.09 6.738.228.491.07.98.158 1.491.241-.063-2.982-1.018-5.62-2.879-7.943-1.939 2.328-4.394 3.874-7.13 5.03M12.622 2.55a69.645 69.645 0 0 1 4.78 7.507c2.601-1.016 4.926-2.4 6.717-4.626-3.376-2.832-7.18-3.781-11.497-2.88m2.31 8.274a81.937 81.937 0 0 0-4.75-7.412c-3.75 1.905-6.108 4.867-7.085 8.974a48.65 48.65 0 0 0 11.834-1.562m2.083 4.133c-.021-.055-.03-.086-.044-.115-.295-.621-.595-1.24-.884-1.864-.07-.151-.142-.184-.308-.136-4.148 1.199-8.386 1.748-12.699 1.764h-.238c-.045 3.42 1.042 6.383 3.28 8.941a21.468 21.468 0 0 1 4.686-5.288c1.849-1.5 3.898-2.628 6.207-3.302m.882 2.1c-4.29 1.557-7.802 4.022-10.135 8.004.07.059.107.095.148.124 3.89 2.801 8.075 3.342 12.555 1.652.133-.05.148-.117.124-.248a52.697 52.697 0 0 0-1.99-7.557c-.222-.65-.46-1.293-.702-1.974M16.129 29.96h-1.014c-.082-.01-.165-.023-.248-.032-.632-.071-1.27-.105-1.894-.218-2.67-.481-5.063-1.589-7.093-3.391C2.01 22.88.293 18.554.751 13.394c.193-2.171.904-4.19 2.016-6.065C5.923 2.01 12.117-.851 18.168.224c2.962.526 5.574 1.788 7.724 3.89 3.908 3.822 5.41 8.47 4.38 13.838-.786 4.102-3.045 7.287-6.523 9.588-2.063 1.365-4.343 2.135-6.809 2.35l-.811.071" fill="#000" fill-rule="evenodd" opacity=".251"/></svg>