<svg width="31" height="30" viewBox="0 0 31 30" xmlns="http://www.w3.org/2000/svg"><title>instagram</title><g fill="#000" fill-rule="evenodd" opacity=".251"><path d="M15.71.01c-4.041 0-4.548.017-6.135.09C7.992.17 6.91.422 5.964.791c-.978.38-1.808.89-2.635 1.719a7.307 7.307 0 0 0-1.716 2.64c-.368.948-.62 2.031-.692 3.618-.072 1.59-.09 2.097-.09 6.145 0 4.047.018 4.555.09 6.145.073 1.586.324 2.67.692 3.617.38.98.889 1.812 1.716 2.64a7.292 7.292 0 0 0 2.635 1.72c.946.368 2.028.62 3.611.692 1.587.073 2.094.09 6.134.09 4.041 0 4.548-.017 6.135-.09 1.583-.072 2.665-.324 3.61-.693a7.292 7.292 0 0 0 2.636-1.719 7.308 7.308 0 0 0 1.716-2.64c.368-.948.62-2.031.692-3.617.072-1.59.09-2.098.09-6.145 0-4.048-.018-4.556-.09-6.145-.073-1.587-.324-2.67-.692-3.618a7.308 7.308 0 0 0-1.716-2.64A7.291 7.291 0 0 0 25.455.79C24.509.424 23.427.172 21.844.1 20.257.027 19.75.01 15.709.01zm0 2.685c3.972 0 4.443.015 6.011.087 1.45.066 2.239.309 2.763.513.694.27 1.19.593 1.71 1.115.521.521.844 1.018 1.113 1.714.204.525.447 1.314.513 2.767.071 1.572.086 2.043.086 6.023 0 3.98-.015 4.45-.086 6.022-.066 1.453-.309 2.242-.513 2.768a4.618 4.618 0 0 1-1.112 1.713 4.608 4.608 0 0 1-1.711 1.115c-.524.204-1.312.447-2.763.513-1.568.072-2.039.087-6.012.087-3.972 0-4.443-.015-6.011-.087-1.451-.066-2.239-.309-2.763-.513a4.608 4.608 0 0 1-1.71-1.115 4.619 4.619 0 0 1-1.114-1.713c-.203-.526-.446-1.315-.512-2.768-.071-1.571-.087-2.043-.087-6.022 0-3.98.016-4.451.087-6.023.066-1.453.309-2.242.512-2.767A4.618 4.618 0 0 1 5.224 4.41a4.608 4.608 0 0 1 1.711-1.115c.524-.204 1.312-.447 2.763-.513 1.568-.072 2.039-.087 6.011-.087z"/><path d="M15.71 19.882a4.964 4.964 0 0 1-4.96-4.968 4.964 4.964 0 0 1 4.96-4.968 4.964 4.964 0 0 1 4.959 4.968 4.964 4.964 0 0 1-4.96 4.968zm0-12.622c-4.22 0-7.64 3.427-7.64 7.654s3.42 7.653 7.64 7.653c4.219 0 7.64-3.426 7.64-7.653 0-4.227-3.421-7.654-7.64-7.654zM25.437 6.958a1.787 1.787 0 0 1-3.57 0c-.001-.988.798-1.789 1.784-1.789s1.786.8 1.786 1.789"/></g></svg>