<svg width="31" height="28" viewBox="0 0 31 28" xmlns="http://www.w3.org/2000/svg" xmlns:xlink="http://www.w3.org/1999/xlink"><title>linkedin</title><defs><path id="a" d="M27.608 27.645H0V0h27.608z"/></defs><g fill="none" fill-rule="evenodd" opacity=".251"><g transform="translate(.51)"><mask id="b" fill="#fff"><use xlink:href="#a"/></mask><path d="M23.525 23.567h-4.092V17.15c0-1.532-.028-3.5-2.128-3.5-2.13 0-2.457 1.667-2.457 3.389v6.53h-4.092v-13.2h3.928v1.804h.055c.546-1.038 1.882-2.132 3.874-2.132 4.147 0 4.912 2.734 4.912 6.287v7.24zM6.142 8.564a2.377 2.377 0 0 1-2.375-2.379 2.376 2.376 0 0 1 2.375-2.377 2.377 2.377 0 0 1 2.372 2.377 2.378 2.378 0 0 1-2.372 2.38zM4.093 23.567h4.095V10.37H4.093v13.198zM25.564 0H2.038C.914 0 0 .893 0 1.993v23.668c0 1.102.914 1.996 2.038 1.996h23.526c1.127 0 2.044-.894 2.044-1.996V1.993c0-1.1-.917-1.993-2.044-1.993z" fill="#1A1919" mask="url(#b)"/></g><path d="M29.511 22.967h-.129v-.262h.164c.084 0 .181.014.181.125 0 .127-.098.137-.216.137zm.129.078c.13-.016.198-.088.198-.209 0-.148-.088-.22-.272-.22h-.295v.777h.111v-.338h.137l.003.004.212.334h.12l-.23-.346.016-.002z" fill="#1A1919"/><path d="M29.524 23.644a.624.624 0 0 1-.626-.638c0-.36.275-.638.626-.638.35 0 .626.278.626.638s-.275.638-.626.638zm0-1.373a.727.727 0 0 0-.734.735c0 .412.322.734.734.734a.726.726 0 0 0 .733-.734.726.726 0 0 0-.733-.735z" fill="#1A1919"/></g></svg>