<svg width="75" height="80" viewBox="0 0 75 80" xmlns="http://www.w3.org/2000/svg"><title>logo</title><defs><linearGradient x1="0%" y1="3.06%" x2="97.852%" y2="103.393%" id="a"><stop stop-color="#0C586E" offset="0%"/><stop stop-color="#13966C" stop-opacity=".5" offset="100%"/></linearGradient></defs><path d="M671.458 67.964c.802 0 1.455-.65 1.455-1.454a1.45 1.45 0 0 0-.794-1.286c.572-15.395 11.042-28.306 25.233-32.567-7.962 4.373-13.527 13.696-13.747 24.533a1.27 1.27 0 0 0-.836 1.194 1.278 1.278 0 0 0 2.556 0c0-.496-.285-.92-.697-1.132.24-12.638 7.98-23.148 18.212-25.659-1.104.608-2.159 1.44-3.142 2.488-3.555 3.79-5.698 9.153-5.753 15.491a1.464 1.464 0 0 0-1.007 1.384 1.468 1.468 0 0 0 2.935 0c0-.67-.454-1.232-1.07-1.405.06-6.116 2.111-11.252 5.524-14.885 2.006-2.14 4.318-3.314 6.71-3.418v12.665a1.467 1.467 0 0 0-.894 1.347 1.467 1.467 0 0 0 2.932 0c0-.603-.367-1.123-.89-1.347V31.281c2.263.223 4.468 1.389 6.408 3.41 3.48 3.62 5.623 8.597 5.711 14.572-.533.22-.911.743-.911 1.354a1.468 1.468 0 0 0 2.937 0c0-.704-.504-1.295-1.169-1.433-.106-6.153-2.338-11.328-5.95-15.084-1.077-1.122-2.234-1.998-3.442-2.617 10.465 2.283 18.448 12.898 18.71 25.717a1.278 1.278 0 0 0-.804 1.184 1.28 1.28 0 0 0 2.557 0c0-.508-.3-.941-.726-1.15-.205-10.855-5.776-20.198-13.751-24.577 14.176 4.256 24.643 17.143 25.234 32.512-.527.221-.898.74-.898 1.341a1.453 1.453 0 0 0 2.909 0c0-.579-.347-1.08-.842-1.311C743.44 45.669 727.3 30 707.554 30c-19.727 0-35.86 15.644-36.598 35.153A1.449 1.449 0 0 0 670 66.51c0 .804.653 1.454 1.458 1.454zm23.926-17.008a.977.977 0 1 1-1.954 0 .977.977 0 0 1 1.954 0zm26.456-.339a.978.978 0 0 1-1.958 0c0-.538.436-.975.979-.975.541 0 .98.437.98.975zm-13.252-5.357a.977.977 0 1 1-1.956 0c0-.537.445-.926.984-.926.539 0 .972.39.972.926zm34.956 26.391c.804 0 1.456.653 1.456 1.455a1.45 1.45 0 0 1-.956 1.36c-.737 19.509-16.87 35.148-36.597 35.148-19.745 0-35.887-15.666-36.603-35.194a1.456 1.456 0 0 1-.844-1.314 1.455 1.455 0 0 1 2.91 0c0 .601-.372 1.122-.899 1.34.593 15.373 11.06 28.26 25.236 32.512-7.974-4.378-13.546-13.72-13.75-24.577a1.276 1.276 0 0 1-.728-1.15 1.28 1.28 0 0 1 1.277-1.276c.706 0 1.278.575 1.278 1.277 0 .538-.332.996-.804 1.183.266 12.822 8.248 23.438 18.715 25.72-1.209-.62-2.367-1.497-3.447-2.62-3.61-3.755-5.843-8.93-5.948-15.083a1.467 1.467 0 0 1-1.167-1.434 1.47 1.47 0 0 1 2.936 0c0 .614-.379 1.136-.913 1.356.087 5.972 2.231 10.952 5.71 14.572 2.171 2.259 4.668 3.453 7.212 3.453 2.514 0 4.953-1.186 7.055-3.427 3.413-3.635 5.465-8.771 5.525-14.887a1.464 1.464 0 0 1-1.071-1.404 1.468 1.468 0 0 1 2.936 0c0 .646-.423 1.188-1.008 1.382-.056 6.337-2.197 11.703-5.753 15.492-.984 1.047-2.039 1.879-3.14 2.488 10.242-2.513 17.991-13.049 18.212-25.71a1.27 1.27 0 0 1-.607-1.081 1.28 1.28 0 0 1 2.558 0 1.27 1.27 0 0 1-.929 1.222c-.23 10.824-5.794 20.137-13.751 24.504 14.195-4.26 24.666-17.171 25.238-32.566a1.444 1.444 0 0 1-.795-1.286c0-.802.653-1.455 1.456-1.455z" transform="translate(-670 -30)" fill="url(#a)" fill-rule="evenodd"/></svg>