<svg width="31" height="26" viewBox="0 0 31 26" xmlns="http://www.w3.org/2000/svg"><title>medium</title><g fill="#1B1A19" fill-rule="evenodd" opacity=".24"><path d="M30.001 4.803L20.561.075a.321.321 0 0 0-.136-.033h-.01a.343.343 0 0 0-.29.157l-5.819 9.473 6.495 10.574 9.29-15.124a.225.225 0 0 0-.09-.319M11.23 6.342V16.55l9.056 4.536L11.23 6.342M29.394 25.64c.454.228.825-.002.825-.51V6.593l-9.142 14.882 8.317 4.166zM.968.213A.502.502 0 0 0 .745.154a.299.299 0 0 0-.237.108.449.449 0 0 0-.09.291v19.915c0 .34.247.74.55.892l8.559 4.287c.119.06.232.088.334.088.289 0 .49-.224.49-.599V5.05a.222.222 0 0 0-.122-.198L.968.212z"/></g></svg>