<svg width="50" height="49" viewBox="0 0 50 49" xmlns="http://www.w3.org/2000/svg"><title>target</title><defs><radialGradient cy="134.486%" fx="50%" fy="134.486%" r="134.486%" gradientTransform="matrix(0 -.11543 1 0 -.845 1.403)" id="a"><stop stop-color="#E4F2F0" offset="0%"/><stop stop-color="#C5E0DC" offset="100%"/></radialGradient><radialGradient cy="134.486%" fx="50%" fy="134.486%" r="134.486%" gradientTransform="matrix(0 -1 .11543 0 .345 1.845)" id="b"><stop stop-color="#E4F2F0" offset="0%"/><stop stop-color="#C5E0DC" offset="100%"/></radialGradient><radialGradient cy="134.486%" fx="50%" fy="134.486%" r="134.486%" gradientTransform="matrix(0 -.11554 1 0 -.845 1.403)" id="c"><stop stop-color="#E4F2F0" offset="0%"/><stop stop-color="#C5E0DC" offset="100%"/></radialGradient><radialGradient cy="134.486%" fx="50%" fy="134.486%" r="134.486%" gradientTransform="matrix(0 -1 .11554 0 .345 1.845)" id="d"><stop stop-color="#E4F2F0" offset="0%"/><stop stop-color="#C5E0DC" offset="100%"/></radialGradient><radialGradient fx="50%" fy="50%" r="41.382%" gradientTransform="matrix(0 -.99994 1 0 0 1)" id="e"><stop stop-color="#1C91A7" offset="0%"/><stop stop-color="#0C586E" offset="100%"/></radialGradient><radialGradient fx="50%" fy="50%" r="97.774%" gradientTransform="matrix(0 1 -.99936 0 1 0)" id="f"><stop stop-color="#2BC7A5" offset="0%"/><stop stop-color="#13966C" offset="100%"/></radialGradient></defs><g fill="none" fill-rule="evenodd"><path d="M25.171.116c-.558 0-1.012.454-1.012 1.012v15.517c0 .558.454 1.013 1.012 1.013s1.013-.455 1.013-1.013V1.128A1.013 1.013 0 0 0 25.17.116z" fill="url(#a)"/><path d="M48.7 23.694H33.184a1.014 1.014 0 0 0 0 2.025h15.518c.558 0 1.012-.454 1.012-1.012s-.454-1.013-1.012-1.013z" fill="url(#b)"/><path d="M25.171 31.322c-.558 0-1.012.454-1.012 1.012v15.518c0 .558.454 1.012 1.012 1.012s1.013-.454 1.013-1.012l.002-15.518c0-.558-.457-1.012-1.015-1.012z" fill="url(#c)"/><path d="M16.817 23.694H1.299a1.014 1.014 0 0 0 0 2.027h15.518a1.014 1.014 0 0 0 0-2.027z" fill="url(#d)"/><path d="M40.04 9.762a20.928 20.928 0 0 0-12.3-6.154v2.048c4.114.59 7.9 2.508 10.856 5.517 2.958 3.02 4.796 6.844 5.3 10.973h2.033c-.504-4.655-2.553-8.992-5.89-12.384zM6.158 27.276H4.118c1.265 9.52 8.917 17.056 18.493 18.142v-2.04c-8.467-1.063-15.219-7.7-16.452-16.102zm4.113-17.825c-3.507 3.437-5.672 7.892-6.2 12.695h2.041a18.905 18.905 0 0 1 5.572-11.253c3.012-2.941 6.82-4.779 10.926-5.293V3.56c-4.642.521-8.955 2.57-12.339 5.89zm33.57 17.825c-1.226 8.287-7.807 14.86-16.101 16.056v2.048c9.412-1.225 16.892-8.69 18.142-18.104h-2.04z" fill="url(#e)"/><path d="M27.738 12.245v.8a11.797 11.797 0 0 1 8.8 9.101h.783c-.921-4.913-4.724-8.823-9.583-9.9v-.001zM13.562 27.274h-.791a12.55 12.55 0 0 0 9.84 9.529v-.792a11.788 11.788 0 0 1-9.049-8.737zm-.885-5.128h.784a11.802 11.802 0 0 1 9.148-9.18v-.79c-5.019.96-8.985 4.942-9.932 9.97zm23.76 5.128a11.788 11.788 0 0 1-8.699 8.66v.799a12.562 12.562 0 0 0 9.49-9.459h-.79z" fill="url(#f)"/></g></svg>