<svg width="50" height="48" viewBox="0 0 50 48" xmlns="http://www.w3.org/2000/svg"><title>flow</title><defs><linearGradient x1="50%" y1="0%" x2="50%" y2="100%" id="a"><stop stop-color="#E4F2F0" offset="0%"/><stop stop-color="#C5E0DC" offset="100%"/></linearGradient><linearGradient x1="50%" y1="0%" x2="50%" y2="100%" id="b"><stop stop-color="#2BC7A5" offset="0%"/><stop stop-color="#13966C" offset="100%"/></linearGradient><linearGradient x1="50%" y1="0%" x2="50%" y2="100%" id="c"><stop stop-color="#1C91A7" offset="0%"/><stop stop-color="#0C586E" offset="100%"/></linearGradient><linearGradient x1="50%" y1="0%" x2="50%" y2="100%" id="d"><stop stop-color="#F2C1B1" offset="0%"/><stop stop-color="#E08E79" offset="100%"/></linearGradient></defs><g fill="none" fill-rule="evenodd"><path d="M16.667 8.637a8.333 8.333 0 0 1-8.334 8.334A8.333 8.333 0 0 1 0 8.637 8.333 8.333 0 0 1 8.333.304a8.333 8.333 0 0 1 8.334 8.333" fill="url(#a)"/><path d="M49.02 8.633a8.333 8.333 0 0 1-8.334 8.334 8.333 8.333 0 0 1-8.333-8.334A8.333 8.333 0 0 1 40.686.3a8.333 8.333 0 0 1 8.334 8.333" fill="url(#b)"/><path d="M17.323 39.133a8.476 8.476 0 0 1-8.477 8.474 8.476 8.476 0 1 1 0-16.95 8.476 8.476 0 0 1 8.477 8.476l-10.747-.001" fill="url(#c)"/><path d="M49.697 39.133a8.476 8.476 0 0 1-8.476 8.474 8.476 8.476 0 1 1 0-16.95 8.476 8.476 0 0 1 8.476 8.476" fill="url(#d)"/><path d="M27.457 8.01h-8.83v1.514h8.83l-1.81 1.81h2.18l2.565-2.567-2.566-2.566h-2.18l1.81 1.809zM28.134 38.374h-8.853v1.518h8.856l-1.817 1.814h2.186l2.574-2.571-2.574-2.573-2.186-.003 1.814 1.815zM19.614 30.287l15.55-13.122-.977-1.16-15.548 13.119.215-2.552-1.67 1.41-.303 3.625 3.625.304 1.67-1.407-2.562-.217z" fill-opacity=".2" fill="#1A2F28"/></g></svg>