<?xml version="1.0" encoding="UTF-8"?>
<svg width="92px" height="54px" viewBox="0 0 92 54" version="1.1" xmlns="http://www.w3.org/2000/svg" xmlns:xlink="http://www.w3.org/1999/xlink">
    <title>Shape</title>
    <defs>
        <linearGradient x1="50%" y1="0%" x2="50%" y2="100%" id="linearGradient-1">
            <stop stop-color="#00BAEF" offset="0%"></stop>
            <stop stop-color="#07C87A" offset="100%"></stop>
        </linearGradient>
    </defs>
    <g id="Page-1" stroke="none" stroke-width="1" fill="none" fill-rule="evenodd">
        <g id="Desktop" transform="translate(-69.000000, -54.000000)" fill="url(#linearGradient-1)" fill-rule="nonzero">
            <g id="Shape" transform="translate(69.000000, 54.000000)">
                <path d="M90.625769,53.9339963 L90.625769,53.9339963 C89.6495912,54.2093626 88.841751,53.5945967 88.5678074,52.6205197 C88.4581397,52.2320202 82.8443273,19.7419694 61.819722,11.7816898 C57.1414698,10.1543815 52.9289668,10.9193884 49.3843987,12.548733 C49.8512761,14.9410481 49.981027,17.6397279 49.9729035,20.585717 C49.3498737,32.5389205 42.6165933,46.0001899 34.0566463,46.307686 C31.5480543,46.3825801 29.7396657,45.2107463 28.7411481,43.1766109 C26.3056679,37.5541162 31.0001672,25.0847989 39.1124172,16.4932359 C41.2109965,14.2203895 43.4192435,12.3360426 45.7917663,11.0368206 C44.5475119,7.39166829 41.9376014,4.13116888 36.8940158,3.44716543 C27.4481525,2.11219343 18.8245712,13.3725691 13.3039537,22.9173927 C7.0792968,33.7136959 3.08703178,44.9315335 3.08703178,44.9315335 C2.91643759,45.8200818 1.74552061,46.1499782 1.04937899,45.9252957 C0.353237365,45.7006131 -0.172535724,44.5873822 0.0528923085,43.8931968 C0.783333292,42.0050033 16.5628443,-2.81679471 37.4358103,0.140055133 C42.9259645,0.907098367 46.8187162,4.22846345 48.6981858,9.37715631 C53.5549301,7.16902211 58.5195369,6.82306072 63.2528486,8.64450557 C72.720826,12.2873953 80.6667692,20.9864348 86.3699405,33.6824711 C88.9212406,39.5852281 90.8095468,45.7543313 92,52.0758963 C91.8273749,52.9644446 91.4072078,53.7133866 90.625769,53.9339963 Z M46.5325874,14.402534 C44.6707754,15.6553895 42.9628818,17.1241306 41.4443224,18.7783007 C34.0038434,26.7627908 30.0095475,37.9813072 31.7529479,41.9056724 C31.9740885,42.684934 32.5303248,43.1585096 34.0079052,43.1646188 C39.8633927,42.9885835 46.2261497,31.944066 46.8187162,20.6302915 C46.7702007,18.9624815 46.8045001,16.8496055 46.5325874,14.402534 Z"></path>
            </g>
        </g>
    </g>
</svg>