<svg width="50" height="24" viewBox="0 0 50 24" xmlns="http://www.w3.org/2000/svg"><title>infinity</title><defs><linearGradient x1="50%" y1="0%" x2="50%" y2="100%" id="a"><stop stop-color="#1C91A7" offset="0%"/><stop stop-color="#0C586E" offset="100%"/></linearGradient></defs><path d="M38.385 35.249c-3.102 0-6.024-1.21-8.218-3.407l-3.632-3.633 3.054-3.053 3.632 3.632a7.247 7.247 0 0 0 5.164 2.135 7.243 7.243 0 0 0 5.158-2.135 7.308 7.308 0 0 0 0-10.328 7.247 7.247 0 0 0-5.158-2.135 7.25 7.25 0 0 0-5.164 2.135l-3.632 3.633-1.525 1.531-3.06 3.06-1.53 1.525-3.632 3.633a11.553 11.553 0 0 1-8.218 3.407c-3.102 0-6.023-1.21-8.217-3.407A11.556 11.556 0 0 1 0 23.624c0-3.102 1.21-6.023 3.407-8.217A11.553 11.553 0 0 1 11.624 12c3.103 0 6.024 1.21 8.218 3.407l3.632 3.632-3.053 3.054-3.633-3.632a7.25 7.25 0 0 0-5.164-2.136 7.243 7.243 0 0 0-5.157 2.136 7.253 7.253 0 0 0-2.142 5.163c0 1.948.756 3.785 2.142 5.158a7.235 7.235 0 0 0 5.157 2.141 7.25 7.25 0 0 0 5.164-2.135l3.633-3.632 1.522-1.532 3.06-3.06 1.53-1.525 3.632-3.632A11.556 11.556 0 0 1 38.383 12c3.102 0 6.023 1.21 8.218 3.407 4.532 4.53 4.532 11.905.002 16.435a11.556 11.556 0 0 1-8.218 3.407z" transform="translate(0 -12)" fill="url(#a)" fill-rule="evenodd"/></svg>