<svg width="50" height="48" viewBox="0 0 50 48" xmlns="http://www.w3.org/2000/svg"><title>confusion</title><defs><linearGradient x1="128.825%" y1="100%" x2="0%" y2="-12.549%" id="a"><stop stop-color="#F2C1B1" offset="0%"/><stop stop-color="#E08E79" offset="100%"/></linearGradient></defs><path d="M28.167 22.374H33c0-3.208 4.832-4.832 4.832-8.875 0-4.833-3.208-7.249-7.248-7.249-4.833 0-8.042 4.043-7.249 8.083h4.833c0-2.458.792-3.25 2.416-3.25 1.624 0 2.416.792 2.416 2.416 0 2.416-4.832 3.25-4.832 8.875zm-10.96 9.166c1.959 0 3.376-1.375 3.376-3.334s-1.417-3.376-3.376-3.376c-1.959 0-3.376 1.417-3.376 3.376 0 1.959 1.417 3.334 3.376 3.334zm13.377-.293c1.875 0 3.25-1.375 3.25-3.209 0-1.875-1.375-3.25-3.25-3.25s-3.21 1.375-3.21 3.25c0 1.834 1.335 3.21 3.21 3.21zM17.207 22.25c2.043 0 1.875 0 2.043-2.085l.998-11.543c.168-2.084 0-2.084-2.042-2.084h-2c-2.043 0-2.208 0-2.043 2.084l.999 11.543c.167 2.085 0 2.085 2.042 2.085h.003zM0 47.916V6.25C0 2.207 2.207 0 6.25 0h37.5C47.793 0 50 2.207 50 6.25v25c0 4.043-2.207 6.25-6.25 6.25H10.416L0 47.916z" fill="url(#a)" fill-rule="evenodd"/></svg>