<svg width="50" height="33" viewBox="0 0 50 33" xmlns="http://www.w3.org/2000/svg"><title>handshake</title><defs><linearGradient x1="50%" y1="0%" x2="50%" y2="100%" id="a"><stop stop-color="#E4F2F0" offset="0%"/><stop stop-color="#C5E0DC" offset="100%"/></linearGradient><linearGradient x1="50%" y1="-50.512%" x2="50%" y2="100%" id="b"><stop stop-color="#1C91A7" offset="0%"/><stop stop-color="#0C586E" offset="100%"/></linearGradient></defs><g fill="none" fill-rule="evenodd"><path d="M15.956 24.372c-.018-.617-.837-1.152-1.308-.777a3.737 3.737 0 0 0-1.038 1.345c-.238.537.177 1.041.721 1.057.668.022 1.645-.957 1.625-1.625zM40.798 22.488l2.029-1.252c-.4-.768-.792-1.492-1.156-2.233-1.266-2.568-2.537-5.134-3.765-7.72-.293-.614-.641-.896-1.345-1.056-1.882-.428-3.728-1.023-5.586-1.562-1.432-.415-2.852-.526-4.273.04-.843.335-1.68.705-2.545.963-1.651.497-2.972 1.312-3.758 2.954-.532 1.116-1.312 2.117-2.037 3.258 1.91.448 3.416-.004 4.587-1.34a2.776 2.776 0 0 1 1.736-.964c.83-.137 1.687-.213 2.48-.475 1.022-.335 1.289-.268 1.54.775.417 1.727 1.404 2.996 3.06 3.655.797.318 1.656.466 2.484.7.246.07.532.117.712.275.892.781 1.753 1.593 2.623 2.395.815.747 1.634 1.495 2.473 2.268l.433-.409.308-.273zM16.53 27.885c-.033.861.649 1.38 1.339 1.088.815-.346 1.363-.981 1.625-1.83.13-.425-.011-.845-.413-1.029-.333-.153-.821-.32-1.092-.184a2.652 2.652 0 0 0-1.458 1.955zM21.542 31.288c-.675.368-1.352-.107-1.256-.873.09-.728.437-1.363 1.065-1.749.229-.142.642-.15.892-.04.003-.002 1.363.797-.701 2.661zM24.725 32.646c-.435.166-.874-.084-.772-.53 0 0 .168-1.62 1.291-1.332.529.133.657 1.411-.519 1.862z" fill="#D4E8E5"/><path d="M38.206 8.785c2.128 3.7 4.345 9.226 6.463 12.908 1.553-.783 3.065-1.558 4.59-2.304.301-.148.397-.321.404-.65.115-5.433.133-12.735.26-18.169.001-.126.006-.253.01-.481L38.205 8.785z" fill="url(#a)"/><path d="M27.488 15.057c-.166-.076-.33-.211-.5-.215-.277-.01-.554.086-.834.104-.943.058-1.844.186-2.44 1.06-.119.178-.325.303-.505.431-1.651 1.185-3.454 1.536-5.389.88-1.063-.363-1.332-1.05-.846-2.034.311-.632.693-1.232 1.068-1.829.808-1.28 1.633-2.55 2.441-3.81-1.977.08-3.955.148-5.93.253-.151.008-.364.22-.422.381-.3.835-.56 1.683-.83 2.526-.85 2.668-1.696 5.336-2.548 8.013.835.61 1.645 1.203 2.45 1.788 1.563-1.298 3.784-.756 4.37 1.76.862-.224 1.672-.122 2.402.431.715.542 1.116 1.25 1.132 2.168 1.76-.193 2.856.533 3.313 2.158 1.74-.14 2.68.701 2.728 2.384.005.137.076.37.16.392.866.227 1.74.455 2.712.014-.266-.191-.466-.324-.652-.47-1.026-.82-2.06-1.63-3.07-2.467-.466-.386-.524-.92-.197-1.263.328-.341.728-.295 1.234.103 1.19.936 2.363 1.895 3.59 2.778.91.655 1.88.55 2.813-.184-.153-.106-.304-.195-.44-.306-1.658-1.35-3.32-2.69-4.962-4.06-.438-.364-.475-.907-.18-1.227.34-.364.799-.315 1.27.12.652.604 1.269 1.254 1.972 1.789 1.17.89 2.364 1.758 3.616 2.521.433.264 1.074.29 1.61.26.507-.031.727-.506.85-.983.123-.495-.296-.598-.562-.817-1.936-1.59-3.871-3.174-5.798-4.774-.366-.304-.499-.708-.128-1.108.36-.384.761-.413 1.174-.05.683.598 1.354 1.215 2.06 1.786a173.067 173.067 0 0 0 3.901 3.072c.529.401 1.106.332 1.483-.076.4-.43.41-1.03-.007-1.542a8.65 8.65 0 0 0-.832-.88c-1.134-1.06-2.266-2.126-3.422-3.164-.646-.577-1.208-1.214-2.187-1.383-2.321-.395-4.232-1.492-5.375-3.673l-.293-.857zM13.057 7.948L.069 1.294c.049.257.075.401.104.546.48 2.528.894 6.929 1.376 9.457.535 2.81 1.065 5.62 1.611 8.427.032.16.158.387.289.429 1.669.541 3.351 1.056 5.087 1.598 1.491-3.995 3.034-9.82 4.52-13.803z" fill="url(#b)"/></g></svg>