<svg width="50" height="50" viewBox="0 0 50 50" xmlns="http://www.w3.org/2000/svg"><title>scattered</title><defs><linearGradient x1="50%" y1="0%" x2="50%" y2="100%" id="a"><stop stop-color="#F2C1B1" offset="0%"/><stop stop-color="#E08E79" offset="100%"/></linearGradient><linearGradient x1="50%" y1="0%" x2="50%" y2="100%" id="b"><stop stop-color="#E4F2F0" offset="0%"/><stop stop-color="#C5E0DC" offset="100%"/></linearGradient><linearGradient x1="50%" y1="0%" x2="50%" y2="100%" id="c"><stop stop-color="#1C91A7" offset="0%"/><stop stop-color="#0C586E" offset="100%"/></linearGradient><linearGradient x1="50%" y1="0%" x2="50%" y2="100%" id="d"><stop stop-color="#2BC7A5" offset="0%"/><stop stop-color="#13966C" offset="100%"/></linearGradient></defs><g fill="none" fill-rule="evenodd"><path fill="url(#a)" d="M3.334 1.666L0 16.666 11.666 10z"/><path fill="url(#b)" d="M40 16.666L50 5 36.666 1.666zM35 40l-13.334-3.334L25 50z"/><path fill="url(#a)" d="M21.666 31.666H8.332l6.666 11.666z"/><path fill="url(#c)" d="M26.736 0L15 8.334l18.404 5z"/><path fill="url(#d)" d="M16.666 13.334L25 30l10-10zM3.334 36.666L0 50h13.334z"/><path fill="url(#b)" d="M1.666 28.334h16.666l-6.666-11.666z"/><path fill="url(#c)" d="M46.666 50L50 38.334H36.666z"/><path fill="url(#a)" d="M45 35l5-18.334L31.666 30z"/></g></svg>