<svg width="30" height="30" viewBox="0 0 30 30" xmlns="http://www.w3.org/2000/svg"><title>OBFavicon</title><g fill="none" fill-rule="evenodd"><path d="M0 0h30v30H0z"/><path d="M6.529 21.882c-.967 0-1.853-.2-2.657-.602a6.609 6.609 0 0 1-2.068-1.597A7.273 7.273 0 0 1 .47 17.405 7.556 7.556 0 0 1 0 14.782c0-.934.167-1.828.5-2.682a7.401 7.401 0 0 1 1.382-2.268A6.687 6.687 0 0 1 3.96 8.264a5.837 5.837 0 0 1 2.588-.582c.968 0 1.853.207 2.657.621.804.414 1.49.957 2.059 1.627a7.53 7.53 0 0 1 1.323 2.278 7.421 7.421 0 0 1-.03 5.276 7.376 7.376 0 0 1-1.372 2.258A6.642 6.642 0 0 1 9.117 21.3a5.837 5.837 0 0 1-2.588.582zm-5.157-7.1c0 .762.125 1.495.373 2.199a5.992 5.992 0 0 0 1.059 1.873c.457.546 1 .98 1.627 1.302.627.322 1.327.483 2.098.483.784 0 1.496-.17 2.137-.512a5.217 5.217 0 0 0 1.627-1.342 6.208 6.208 0 0 0 1.03-1.873 6.455 6.455 0 0 0 .362-2.13c0-.763-.127-1.496-.382-2.2a6.021 6.021 0 0 0-1.069-1.863c-.457-.539-1-.97-1.627-1.292a4.482 4.482 0 0 0-2.078-.483c-.784 0-1.497.168-2.137.503a5.1 5.1 0 0 0-1.628 1.331 6.208 6.208 0 0 0-1.029 1.874 6.455 6.455 0 0 0-.363 2.13zM29.996 18.216c0 .577-.117 1.093-.35 1.55a3.517 3.517 0 0 1-.94 1.156 4.222 4.222 0 0 1-1.39.724c-.533.168-1.1.252-1.7.252h-6.78V7.613h7.32c.493 0 .94.108 1.34.322.4.215.74.493 1.02.835.28.342.497.731.65 1.167.153.436.23.875.23 1.318a3.85 3.85 0 0 1-.53 1.961 3.242 3.242 0 0 1-1.51 1.358c.813.242 1.457.681 1.93 1.318.473.637.71 1.412.71 2.324zm-2.3-.423a2.4 2.4 0 0 0-.15-.845 2.416 2.416 0 0 0-.4-.704 1.878 1.878 0 0 0-.61-.483c-.24-.12-.5-.18-.78-.18h-4.68v4.365h4.54c.293 0 .567-.057.82-.17a2.099 2.099 0 0 0 1.1-1.148c.107-.261.16-.54.16-.835zm-6.62-8.228v4.205h4.12c.28 0 .537-.054.77-.161a2.11 2.11 0 0 0 .62-.433c.18-.18.32-.399.42-.654.1-.255.15-.536.15-.845 0-.617-.173-1.123-.52-1.519a1.678 1.678 0 0 0-1.32-.593h-4.24z" fill="#2F4852"/><path fill="#27A3EC" d="M15.163 5.066h1.053v19.192h-1.053z"/></g></svg>